<svg width="25" height="25" viewBox="0 0 25 25" fill="none" xmlns="http://www.w3.org/2000/svg">
<mask id="mask0_25_4767" style="mask-type:alpha" maskUnits="userSpaceOnUse" x="0" y="0" width="25" height="25">
<path d="M0.857056 0.75708H24.8571V24.7571H0.857056V0.75708Z" fill="#D9D9D9"/>
</mask>
<g mask="url(#mask0_25_4767)">
<path d="M12.8571 22.7571C11.0904 22.7571 9.64872 22.4779 8.53206 21.9196C7.41539 21.3612 6.85706 20.6404 6.85706 19.7571C6.85706 19.3571 6.97789 18.9862 7.21956 18.6446C7.46122 18.3029 7.79872 18.0071 8.23206 17.7571L9.80706 19.2321C9.65706 19.2987 9.49456 19.3737 9.31956 19.4571C9.14456 19.5404 9.00706 19.6404 8.90706 19.7571C9.12372 20.0237 9.62372 20.2571 10.4071 20.4571C11.1904 20.6571 12.0071 20.7571 12.8571 20.7571C13.7071 20.7571 14.5279 20.6571 15.3196 20.4571C16.1112 20.2571 16.6154 20.0237 16.8321 19.7571C16.7154 19.6237 16.5654 19.5154 16.3821 19.4321C16.1987 19.3487 16.0237 19.2737 15.8571 19.2071L17.4071 17.7071C17.8737 17.9737 18.2321 18.2779 18.4821 18.6196C18.7321 18.9612 18.8571 19.3404 18.8571 19.7571C18.8571 20.6404 18.2987 21.3612 17.1821 21.9196C16.0654 22.4779 14.6237 22.7571 12.8571 22.7571ZM12.8821 17.2571C14.5321 16.0404 15.7737 14.8196 16.6071 13.5946C17.4404 12.3696 17.8571 11.1404 17.8571 9.90708C17.8571 8.20708 17.3154 6.92375 16.2321 6.05708C15.1487 5.19041 14.0237 4.75708 12.8571 4.75708C11.6904 4.75708 10.5654 5.19041 9.48206 6.05708C8.39872 6.92375 7.85706 8.20708 7.85706 9.90708C7.85706 11.0237 8.26539 12.1862 9.08206 13.3946C9.89872 14.6029 11.1654 15.8904 12.8821 17.2571ZM12.8571 19.7571C10.5071 18.0237 8.75289 16.3404 7.59456 14.7071C6.43622 13.0737 5.85706 11.4737 5.85706 9.90708C5.85706 8.72375 6.06956 7.68625 6.49456 6.79458C6.91956 5.90291 7.46539 5.15708 8.13206 4.55708C8.79872 3.95708 9.54872 3.50708 10.3821 3.20708C11.2154 2.90708 12.0404 2.75708 12.8571 2.75708C13.6737 2.75708 14.4987 2.90708 15.3321 3.20708C16.1654 3.50708 16.9154 3.95708 17.5821 4.55708C18.2487 5.15708 18.7946 5.90291 19.2196 6.79458C19.6446 7.68625 19.8571 8.72375 19.8571 9.90708C19.8571 11.4737 19.2779 13.0737 18.1196 14.7071C16.9612 16.3404 15.2071 18.0237 12.8571 19.7571ZM12.8571 11.7571C13.4071 11.7571 13.8779 11.5612 14.2696 11.1696C14.6612 10.7779 14.8571 10.3071 14.8571 9.75708C14.8571 9.20708 14.6612 8.73625 14.2696 8.34458C13.8779 7.95291 13.4071 7.75708 12.8571 7.75708C12.3071 7.75708 11.8362 7.95291 11.4446 8.34458C11.0529 8.73625 10.8571 9.20708 10.8571 9.75708C10.8571 10.3071 11.0529 10.7779 11.4446 11.1696C11.8362 11.5612 12.3071 11.7571 12.8571 11.7571Z" fill="#E9B44D"/>
</g>
</svg>
