<svg width="398" height="126" viewBox="0 0 398 126" fill="none" xmlns="http://www.w3.org/2000/svg">
<rect x="1.5" y="1.5" width="395" height="94" stroke="url(#paint0_linear_5_1029)" stroke-width="3"/>
<rect width="97" height="97" fill="url(#paint1_linear_5_1029)"/>
<path d="M18 83V13H55.0736C64.0915 13 70.6461 15.029 74.7376 19.087C78.9125 23.0725 81 28.5073 81 35.3913C81 40.3188 79.5805 44.5217 76.7415 48C73.9026 51.4783 69.8111 53.9058 64.4672 55.2826C65.9702 56.2246 67.1392 57.2391 67.9742 58.3261C68.8091 59.413 69.6441 60.8623 70.4791 62.6739L80.6243 83H66.5964L56.7018 63.4348C55.7833 61.5507 54.6561 60.2101 53.3201 59.413C52.0676 58.6159 49.8966 58.2174 46.8072 58.2174H31.6521V83H18ZM31.6521 48.6522H51.4414C56.3678 48.6522 60.2505 47.6015 63.0895 45.5C65.9284 43.3986 67.3479 40.029 67.3479 35.3913C67.3479 26.6232 62.4632 22.2391 52.6938 22.2391H31.6521V48.6522Z" fill="#ECECEC"/>
<path d="M108 76V21H158.326V28.2593H120.217V44.913H154.179V52.087H120.217V68.8261H158.326V76H108ZM169.624 76V21H201.792C207.322 21 211.88 21.7971 215.467 23.3913C219.053 24.9855 221.706 27.1775 223.425 29.9674C225.143 32.7003 226.003 35.8318 226.003 39.3618C226.003 44.8276 223.761 49.2117 219.278 52.514C214.869 55.8163 208.891 57.4674 201.344 57.4674H181.841V76H169.624ZM181.841 50.1227H199.102C203.959 50.1227 207.621 49.1548 210.087 47.2189C212.553 45.2831 213.785 42.6641 213.785 39.3618C213.785 35.8318 212.59 33.0989 210.199 31.163C207.882 29.2272 204.37 28.2593 199.663 28.2593H181.841V50.1227ZM224.631 76L252.204 21H265.878L293.228 76H280.673L273.5 61.823H244.47L237.297 76H224.631ZM246.376 54.6491H271.482L258.929 29.455L246.376 54.6491ZM305.242 76V21H317.459V76H305.242ZM331.622 76V21H364.799C372.869 21 378.734 22.5942 382.396 25.7826C386.131 28.9141 388 33.1843 388 38.5932C388 42.4648 386.729 45.7671 384.189 48.5C381.648 51.2329 377.986 53.1402 373.205 54.222C374.55 54.9623 375.595 55.7593 376.343 56.6134C377.089 57.4674 377.837 58.6061 378.585 60.0295L387.664 76H375.11L366.256 60.6273C365.433 59.147 364.424 58.0936 363.229 57.4674C362.109 56.8411 360.165 56.528 357.401 56.528H343.839V76H331.622ZM343.839 49.0124H361.548C365.956 49.0124 369.431 48.1868 371.972 46.5357C374.511 44.8846 375.783 42.2371 375.783 38.5932C375.783 31.7039 371.412 28.2593 362.669 28.2593H343.839V49.0124Z" fill="url(#paint2_linear_5_1029)"/>
<path d="M0.702804 125.75C0.478718 125.75 0.305567 125.7 0.18334 125.6C0.0611134 125.483 0 125.342 0 125.175V108.85C0 108.667 0.0611134 108.525 0.18334 108.425C0.305567 108.308 0.478718 108.25 0.702804 108.25H8.4642C9.9717 108.25 11.2754 108.45 12.3755 108.85C13.4958 109.25 14.3616 109.85 14.9728 110.65C15.5839 111.433 15.8895 112.417 15.8895 113.6C15.8895 114.783 15.5839 115.767 14.9728 116.55C14.3616 117.333 13.4958 117.925 12.3755 118.325C11.2754 118.725 9.9717 118.925 8.4642 118.925H3.05567V125.175C3.05567 125.342 2.98437 125.483 2.84177 125.6C2.71955 125.7 2.54639 125.75 2.32231 125.75H0.702804ZM3.02511 116.825H8.31142C9.81892 116.825 10.9495 116.55 11.7032 116C12.4569 115.45 12.8338 114.65 12.8338 113.6C12.8338 112.567 12.4671 111.767 11.7338 111.2C11.0004 110.633 9.85959 110.35 8.31142 110.35H3.02511V116.825ZM19.3914 125.75C19.1673 125.75 18.9941 125.7 18.8719 125.6C18.7497 125.483 18.6886 125.342 18.6886 125.175V108.85C18.6886 108.667 18.7497 108.525 18.8719 108.425C18.9941 108.308 19.1673 108.25 19.3914 108.25H32.0113C32.2353 108.25 32.4085 108.308 32.5308 108.425C32.653 108.525 32.7141 108.667 32.7141 108.85V109.8C32.7141 109.983 32.653 110.125 32.5308 110.225C32.4085 110.325 32.2353 110.375 32.0113 110.375H21.622V115.85H31.339C31.5631 115.85 31.7363 115.908 31.8585 116.025C31.9807 116.125 32.0418 116.267 32.0418 116.45V117.375C32.0418 117.542 31.9807 117.683 31.8585 117.8C31.7363 117.9 31.5631 117.95 31.339 117.95H21.622V123.625H32.2557C32.4798 123.625 32.653 123.675 32.7752 123.775C32.8974 123.875 32.9585 124.017 32.9585 124.2V125.175C32.9585 125.342 32.8974 125.483 32.7752 125.6C32.653 125.7 32.4798 125.75 32.2557 125.75H19.3914ZM37.0056 125.75C36.8019 125.75 36.6287 125.7 36.4861 125.6C36.3639 125.483 36.3028 125.342 36.3028 125.175V108.85C36.3028 108.667 36.3639 108.525 36.4861 108.425C36.6287 108.308 36.8019 108.25 37.0056 108.25H38.5334C38.7779 108.25 38.9612 108.3 39.0834 108.4C39.2057 108.5 39.277 108.583 39.2973 108.65L45.7754 118.75L52.2839 108.65C52.3247 108.583 52.3959 108.5 52.4978 108.4C52.6201 108.3 52.8034 108.25 53.0479 108.25H54.5451C54.7692 108.25 54.9424 108.308 55.0646 108.425C55.2072 108.525 55.2785 108.667 55.2785 108.85V125.175C55.2785 125.342 55.2072 125.483 55.0646 125.6C54.9424 125.7 54.7692 125.75 54.5451 125.75H53.0479C52.8442 125.75 52.671 125.7 52.5284 125.6C52.4062 125.483 52.3451 125.342 52.3451 125.175V112.875L47.2421 121.025C47.1606 121.192 47.0384 121.325 46.8754 121.425C46.7124 121.508 46.5087 121.55 46.2643 121.55H45.317C45.0522 121.55 44.8383 121.508 44.6753 121.425C44.5328 121.325 44.4105 121.192 44.3086 121.025L39.2057 112.875V125.175C39.2057 125.342 39.1343 125.483 38.9918 125.6C38.8695 125.7 38.7065 125.75 38.5029 125.75H37.0056ZM67.3161 126C65.5846 126 64.0975 125.758 62.8548 125.275C61.6122 124.775 60.6548 124.017 59.9825 123C59.3103 121.967 58.9335 120.675 58.8519 119.125C58.8316 118.392 58.8214 117.692 58.8214 117.025C58.8214 116.342 58.8316 115.633 58.8519 114.9C58.9335 113.367 59.3205 112.092 60.0131 111.075C60.7261 110.042 61.7039 109.275 62.9465 108.775C64.2095 108.258 65.6661 108 67.3161 108C68.9866 108 70.4431 108.258 71.6858 108.775C72.9488 109.275 73.9368 110.042 74.6497 111.075C75.3627 112.092 75.7499 113.367 75.811 114.9C75.8516 115.633 75.872 116.342 75.872 117.025C75.872 117.692 75.8516 118.392 75.811 119.125C75.7499 120.675 75.373 121.967 74.6804 123C74.008 124.017 73.0507 124.775 71.808 125.275C70.5653 125.758 69.0681 126 67.3161 126ZM67.3161 123.875C68.8847 123.875 70.1579 123.492 71.1357 122.725C72.134 121.958 72.6738 120.717 72.7552 119C72.796 118.25 72.8163 117.583 72.8163 117C72.8163 116.4 72.796 115.733 72.7552 115C72.7145 113.85 72.4496 112.917 71.9607 112.2C71.4923 111.483 70.8607 110.958 70.0662 110.625C69.2717 110.292 68.355 110.125 67.3161 110.125C66.318 110.125 65.4216 110.292 64.6271 110.625C63.8326 110.958 63.191 111.483 62.7021 112.2C62.2336 112.917 61.9687 113.85 61.9076 115C61.8872 115.733 61.877 116.4 61.877 117C61.877 117.583 61.8872 118.25 61.9076 119C61.9891 120.717 62.5289 121.958 63.5271 122.725C64.5253 123.492 65.7883 123.875 67.3161 123.875ZM80.112 125.75C79.8879 125.75 79.7148 125.7 79.5926 125.6C79.4703 125.483 79.4092 125.342 79.4092 125.175V108.85C79.4092 108.667 79.4703 108.525 79.5926 108.425C79.7148 108.308 79.8879 108.25 80.112 108.25H81.6704C81.8945 108.25 82.0676 108.308 82.1899 108.425C82.3324 108.525 82.4038 108.667 82.4038 108.85V115.75H92.9153V108.85C92.9153 108.667 92.9764 108.525 93.0986 108.425C93.2412 108.308 93.4144 108.25 93.6181 108.25H95.1765C95.4009 108.25 95.5737 108.308 95.6959 108.425C95.8382 108.525 95.9098 108.667 95.9098 108.85V125.175C95.9098 125.342 95.8382 125.483 95.6959 125.6C95.5737 125.7 95.4009 125.75 95.1765 125.75H93.6181C93.4144 125.75 93.2412 125.7 93.0986 125.6C92.9764 125.483 92.9153 125.342 92.9153 125.175V118H82.4038V125.175C82.4038 125.342 82.3324 125.483 82.1899 125.6C82.0676 125.7 81.8945 125.75 81.6704 125.75H80.112ZM105.654 125.75C105.45 125.75 105.277 125.7 105.134 125.6C105.012 125.483 104.951 125.342 104.951 125.175V110.475H99.0839C98.8805 110.475 98.7077 110.425 98.5644 110.325C98.4422 110.208 98.3811 110.067 98.3811 109.9V108.85C98.3811 108.667 98.4422 108.525 98.5644 108.425C98.7077 108.308 98.8805 108.25 99.0839 108.25H113.812C114.037 108.25 114.209 108.308 114.332 108.425C114.475 108.525 114.546 108.667 114.546 108.85V109.9C114.546 110.067 114.475 110.208 114.332 110.325C114.209 110.425 114.037 110.475 113.812 110.475H107.976V125.175C107.976 125.342 107.905 125.483 107.762 125.6C107.64 125.7 107.467 125.75 107.243 125.75H105.654ZM124.33 125.75C124.107 125.75 123.933 125.7 123.811 125.6C123.689 125.483 123.628 125.342 123.628 125.175V108.85C123.628 108.667 123.689 108.525 123.811 108.425C123.933 108.308 124.107 108.25 124.33 108.25H139.396C139.619 108.25 139.792 108.308 139.914 108.425C140.058 108.525 140.128 108.667 140.128 108.85V125.175C140.128 125.342 140.058 125.483 139.914 125.6C139.792 125.7 139.619 125.75 139.396 125.75H137.837C137.633 125.75 137.46 125.7 137.317 125.6C137.195 125.483 137.135 125.342 137.135 125.175V110.5H126.622V125.175C126.622 125.342 126.552 125.483 126.408 125.6C126.286 125.7 126.113 125.75 125.889 125.75H124.33ZM145.198 125.75C144.973 125.75 144.801 125.7 144.678 125.6C144.556 125.483 144.495 125.342 144.495 125.175V108.85C144.495 108.667 144.556 108.525 144.678 108.425C144.801 108.308 144.973 108.25 145.198 108.25H152.959C154.467 108.25 155.77 108.45 156.87 108.85C157.991 109.25 158.857 109.85 159.468 110.65C160.079 111.433 160.384 112.417 160.384 113.6C160.384 114.783 160.079 115.767 159.468 116.55C158.857 117.333 157.991 117.925 156.87 118.325C155.77 118.725 154.467 118.925 152.959 118.925H147.551V125.175C147.551 125.342 147.479 125.483 147.337 125.6C147.215 125.7 147.042 125.75 146.817 125.75H145.198ZM147.52 116.825H152.806C154.314 116.825 155.445 116.55 156.198 116C156.952 115.45 157.329 114.65 157.329 113.6C157.329 112.567 156.962 111.767 156.229 111.2C155.495 110.633 154.354 110.35 152.806 110.35H147.52V116.825ZM161.747 125.75C161.585 125.75 161.442 125.7 161.319 125.6C161.197 125.5 161.136 125.383 161.136 125.25C161.136 125.167 161.146 125.075 161.167 124.975L168.745 108.8C168.827 108.633 168.938 108.5 169.081 108.4C169.224 108.3 169.438 108.25 169.722 108.25H171.8C172.066 108.25 172.269 108.3 172.411 108.4C172.575 108.5 172.697 108.633 172.778 108.8L180.326 124.975C180.367 125.075 180.387 125.167 180.387 125.25C180.387 125.383 180.326 125.5 180.203 125.6C180.081 125.7 179.939 125.75 179.776 125.75H178.217C177.973 125.75 177.789 125.7 177.667 125.6C177.566 125.5 177.494 125.408 177.453 125.325L175.773 121.775H165.75L164.069 125.325C164.049 125.408 163.978 125.5 163.855 125.6C163.733 125.7 163.55 125.75 163.305 125.75H161.747ZM166.636 119.625H174.886L170.761 110.75L166.636 119.625ZM196.671 125.75C196.467 125.75 196.294 125.7 196.152 125.6C196.03 125.483 195.969 125.342 195.969 125.175V110.5H188.391V114.525C188.391 116.525 188.258 118.233 187.993 119.65C187.728 121.05 187.321 122.192 186.771 123.075C186.221 123.942 185.508 124.592 184.632 125.025C183.777 125.442 182.738 125.675 181.515 125.725C181.311 125.742 181.138 125.692 180.996 125.575C180.853 125.458 180.782 125.308 180.782 125.125V124.025C180.782 123.692 180.996 123.5 181.424 123.45C182.055 123.367 182.615 123.142 183.104 122.775C183.613 122.408 184.041 121.867 184.388 121.15C184.733 120.417 184.999 119.483 185.182 118.35C185.366 117.2 185.457 115.825 185.457 114.225V108.825C185.457 108.658 185.518 108.525 185.641 108.425C185.783 108.308 185.956 108.25 186.16 108.25H198.23C198.453 108.25 198.627 108.308 198.749 108.425C198.892 108.525 198.963 108.667 198.963 108.85V125.175C198.963 125.342 198.892 125.483 198.749 125.6C198.627 125.7 198.453 125.75 198.23 125.75H196.671ZM204.068 125.75C203.845 125.75 203.671 125.7 203.549 125.6C203.426 125.483 203.365 125.342 203.365 125.175V108.825C203.365 108.658 203.426 108.525 203.549 108.425C203.671 108.308 203.845 108.25 204.068 108.25H205.627C205.851 108.25 206.024 108.308 206.146 108.425C206.289 108.525 206.36 108.658 206.36 108.825V114.9H211.004C213.246 114.9 214.967 115.358 216.169 116.275C217.371 117.175 217.971 118.5 217.971 120.25C217.971 121.2 217.717 122.1 217.207 122.95C216.719 123.783 215.955 124.458 214.916 124.975C213.898 125.492 212.593 125.75 211.004 125.75H204.068ZM206.36 123.65H210.76C212.084 123.65 213.113 123.333 213.846 122.7C214.58 122.067 214.946 121.233 214.946 120.2C214.946 119.133 214.601 118.333 213.907 117.8C213.215 117.25 212.166 116.975 210.76 116.975H206.36V123.65ZM221.563 125.75C221.339 125.75 221.166 125.7 221.043 125.6C220.921 125.483 220.86 125.342 220.86 125.175V108.85C220.86 108.667 220.921 108.525 221.043 108.425C221.166 108.308 221.339 108.25 221.563 108.25H223.121C223.346 108.25 223.518 108.308 223.641 108.425C223.784 108.525 223.855 108.667 223.855 108.85V115.75H234.366V108.85C234.366 108.667 234.427 108.525 234.549 108.425C234.693 108.308 234.865 108.25 235.069 108.25H236.627C236.852 108.25 237.024 108.308 237.147 108.425C237.29 108.525 237.361 108.667 237.361 108.85V125.175C237.361 125.342 237.29 125.483 237.147 125.6C237.024 125.7 236.852 125.75 236.627 125.75H235.069C234.865 125.75 234.693 125.7 234.549 125.6C234.427 125.483 234.366 125.342 234.366 125.175V118H223.855V125.175C223.855 125.342 223.784 125.483 223.641 125.6C223.518 125.7 223.346 125.75 223.121 125.75H221.563ZM242.43 125.75C242.206 125.75 242.033 125.692 241.911 125.575C241.788 125.458 241.727 125.317 241.727 125.15V108.85C241.727 108.667 241.788 108.525 241.911 108.425C242.053 108.308 242.227 108.25 242.43 108.25H244.019C244.222 108.25 244.386 108.308 244.508 108.425C244.65 108.525 244.722 108.667 244.722 108.85V121.775L256.12 108.6C256.181 108.533 256.262 108.458 256.364 108.375C256.486 108.292 256.659 108.25 256.883 108.25H258.381C258.584 108.25 258.747 108.308 258.87 108.425C259.012 108.525 259.084 108.667 259.084 108.85V125.175C259.084 125.342 259.012 125.483 258.87 125.6C258.747 125.7 258.584 125.75 258.381 125.75H256.822C256.619 125.75 256.445 125.7 256.303 125.6C256.161 125.483 256.089 125.342 256.089 125.175V112.35L244.722 125.4C244.681 125.45 244.6 125.525 244.477 125.625C244.355 125.708 244.182 125.75 243.958 125.75H242.43ZM262.206 125.75C262.043 125.75 261.89 125.7 261.748 125.6C261.625 125.5 261.564 125.383 261.564 125.25C261.564 125.183 261.575 125.125 261.595 125.075C261.636 125.008 261.667 124.958 261.687 124.925L268.684 116.85L262.023 109.075C261.962 108.975 261.931 108.867 261.931 108.75C261.931 108.617 261.992 108.5 262.114 108.4C262.237 108.3 262.379 108.25 262.542 108.25H264.376C264.579 108.25 264.742 108.292 264.864 108.375C264.987 108.442 265.098 108.542 265.201 108.675L270.579 114.925L275.926 108.675C276.007 108.542 276.109 108.442 276.232 108.375C276.374 108.292 276.537 108.25 276.72 108.25H278.462C278.625 108.25 278.768 108.3 278.89 108.4C279.012 108.5 279.073 108.617 279.073 108.75C279.073 108.867 279.032 108.975 278.951 109.075L272.381 116.875L279.348 124.925C279.389 124.958 279.42 125.008 279.44 125.075C279.46 125.125 279.471 125.183 279.471 125.25C279.471 125.383 279.409 125.5 279.287 125.6C279.165 125.7 279.012 125.75 278.829 125.75H276.965C276.782 125.75 276.618 125.708 276.476 125.625C276.354 125.542 276.242 125.45 276.14 125.35L270.456 118.85L264.803 125.35C264.701 125.45 264.589 125.542 264.467 125.625C264.345 125.708 264.182 125.75 263.978 125.75H262.206ZM289.186 125.75C288.981 125.75 288.808 125.7 288.666 125.6C288.544 125.483 288.483 125.342 288.483 125.175V108.85C288.483 108.667 288.544 108.525 288.666 108.425C288.808 108.308 288.981 108.25 289.186 108.25H290.714C290.958 108.25 291.141 108.3 291.264 108.4C291.386 108.5 291.456 108.583 291.477 108.65L297.955 118.75L304.464 108.65C304.504 108.583 304.576 108.5 304.678 108.4C304.8 108.3 304.983 108.25 305.228 108.25H306.725C306.949 108.25 307.122 108.308 307.245 108.425C307.387 108.525 307.459 108.667 307.459 108.85V125.175C307.459 125.342 307.387 125.483 307.245 125.6C307.122 125.7 306.949 125.75 306.725 125.75H305.228C305.024 125.75 304.851 125.7 304.709 125.6C304.586 125.483 304.525 125.342 304.525 125.175V112.875L299.422 121.025C299.34 121.192 299.218 121.325 299.055 121.425C298.892 121.508 298.689 121.55 298.444 121.55H297.497C297.232 121.55 297.018 121.508 296.855 121.425C296.712 121.325 296.59 121.192 296.489 121.025L291.386 112.875V125.175C291.386 125.342 291.314 125.483 291.172 125.6C291.05 125.7 290.886 125.75 290.683 125.75H289.186ZM310.39 125.75C310.227 125.75 310.085 125.7 309.962 125.6C309.84 125.5 309.779 125.383 309.779 125.25C309.779 125.167 309.789 125.075 309.81 124.975L317.388 108.8C317.469 108.633 317.581 108.5 317.724 108.4C317.866 108.3 318.08 108.25 318.365 108.25H320.443C320.708 108.25 320.912 108.3 321.054 108.4C321.218 108.5 321.34 108.633 321.421 108.8L328.969 124.975C329.01 125.075 329.03 125.167 329.03 125.25C329.03 125.383 328.969 125.5 328.846 125.6C328.724 125.7 328.582 125.75 328.419 125.75H326.86C326.616 125.75 326.432 125.7 326.31 125.6C326.208 125.5 326.137 125.408 326.096 125.325L324.416 121.775H314.393L312.712 125.325C312.692 125.408 312.621 125.5 312.499 125.6C312.376 125.7 312.193 125.75 311.949 125.75H310.39ZM315.279 119.625H323.53L319.404 110.75L315.279 119.625ZM332.083 125.75C331.859 125.75 331.686 125.7 331.564 125.6C331.442 125.483 331.381 125.342 331.381 125.175V108.825C331.381 108.658 331.442 108.525 331.564 108.425C331.686 108.308 331.859 108.25 332.083 108.25H333.642C333.865 108.25 334.039 108.308 334.161 108.425C334.304 108.525 334.375 108.658 334.375 108.825V123.5H341.862V108.825C341.862 108.658 341.923 108.525 342.045 108.425C342.187 108.308 342.36 108.25 342.564 108.25H344.123C344.346 108.25 344.52 108.308 344.642 108.425C344.785 108.525 344.856 108.658 344.856 108.825V123.5H352.343V108.825C352.343 108.658 352.404 108.525 352.526 108.425C352.668 108.308 352.841 108.25 353.045 108.25H354.604C354.827 108.25 355.001 108.308 355.123 108.425C355.265 108.525 355.337 108.658 355.337 108.825V125.175C355.337 125.342 355.265 125.483 355.123 125.6C355.001 125.7 354.827 125.75 354.604 125.75H332.083ZM360.44 125.75C360.216 125.75 360.043 125.692 359.921 125.575C359.798 125.458 359.737 125.317 359.737 125.15V108.85C359.737 108.667 359.798 108.525 359.921 108.425C360.063 108.308 360.236 108.25 360.44 108.25H362.029C362.232 108.25 362.396 108.308 362.518 108.425C362.66 108.525 362.732 108.667 362.732 108.85V121.775L374.129 108.6C374.191 108.533 374.272 108.458 374.374 108.375C374.496 108.292 374.669 108.25 374.893 108.25H376.391C376.594 108.25 376.757 108.308 376.88 108.425C377.022 108.525 377.093 108.667 377.093 108.85V125.175C377.093 125.342 377.022 125.483 376.88 125.6C376.757 125.7 376.594 125.75 376.391 125.75H374.832C374.628 125.75 374.455 125.7 374.313 125.6C374.17 125.483 374.099 125.342 374.099 125.175V112.35L362.732 125.4C362.691 125.45 362.61 125.525 362.487 125.625C362.365 125.708 362.191 125.75 361.968 125.75H360.44ZM382.202 125.75C381.978 125.75 381.805 125.7 381.683 125.6C381.56 125.483 381.499 125.342 381.499 125.175V108.85C381.499 108.667 381.56 108.525 381.683 108.425C381.805 108.308 381.978 108.25 382.202 108.25H383.761C383.984 108.25 384.158 108.308 384.28 108.425C384.422 108.525 384.494 108.667 384.494 108.85V115.75H395.005V108.85C395.005 108.667 395.067 108.525 395.189 108.425C395.331 108.308 395.504 108.25 395.708 108.25H397.267C397.49 108.25 397.664 108.308 397.786 108.425C397.928 108.525 398 108.667 398 108.85V125.175C398 125.342 397.928 125.483 397.786 125.6C397.664 125.7 397.49 125.75 397.267 125.75H395.708C395.504 125.75 395.331 125.7 395.189 125.6C395.067 125.483 395.005 125.342 395.005 125.175V118H384.494V125.175C384.494 125.342 384.422 125.483 384.28 125.6C384.158 125.7 383.984 125.75 383.761 125.75H382.202Z" fill="white"/>
<defs>
<linearGradient id="paint0_linear_5_1029" x1="0" y1="48.5" x2="398" y2="48.5" gradientUnits="userSpaceOnUse">
<stop stop-color="#066839"/>
<stop offset="1" stop-color="#1A3265"/>
</linearGradient>
<linearGradient id="paint1_linear_5_1029" x1="48.1335" y1="8.30994e-07" x2="48.8665" y2="97" gradientUnits="userSpaceOnUse">
<stop stop-color="#066839"/>
<stop offset="1" stop-color="#1A3265"/>
</linearGradient>
<linearGradient id="paint2_linear_5_1029" x1="487.635" y1="43" x2="108.003" y2="48.2213" gradientUnits="userSpaceOnUse">
<stop stop-color="#066839"/>
<stop offset="1" stop-color="white"/>
</linearGradient>
</defs>
</svg>
