<svg width="398" height="112" viewBox="0 0 398 112" fill="none" xmlns="http://www.w3.org/2000/svg">
<rect x="1.5" y="1.5" width="395" height="80" stroke="#E9B44D" stroke-width="3"/>
<rect width="97" height="83" fill="#E9B44D"/>
<path d="M0.702804 111.75C0.478718 111.75 0.305567 111.7 0.18334 111.6C0.0611134 111.483 0 111.342 0 111.175V94.85C0 94.6667 0.0611134 94.525 0.18334 94.425C0.305567 94.3083 0.478718 94.25 0.702804 94.25H8.4642C9.9717 94.25 11.2754 94.45 12.3755 94.85C13.4958 95.25 14.3616 95.85 14.9728 96.65C15.5839 97.4333 15.8895 98.4167 15.8895 99.6C15.8895 100.783 15.5839 101.767 14.9728 102.55C14.3616 103.333 13.4958 103.925 12.3755 104.325C11.2754 104.725 9.9717 104.925 8.4642 104.925H3.05567V111.175C3.05567 111.342 2.98437 111.483 2.84177 111.6C2.71955 111.7 2.54639 111.75 2.32231 111.75H0.702804ZM3.02511 102.825H8.31142C9.81892 102.825 10.9495 102.55 11.7032 102C12.4569 101.45 12.8338 100.65 12.8338 99.6C12.8338 98.5667 12.4671 97.7667 11.7338 97.2C11.0004 96.6333 9.85959 96.35 8.31142 96.35H3.02511V102.825ZM19.3914 111.75C19.1673 111.75 18.9941 111.7 18.8719 111.6C18.7497 111.483 18.6886 111.342 18.6886 111.175V94.85C18.6886 94.6667 18.7497 94.525 18.8719 94.425C18.9941 94.3083 19.1673 94.25 19.3914 94.25H32.0113C32.2353 94.25 32.4085 94.3083 32.5308 94.425C32.653 94.525 32.7141 94.6667 32.7141 94.85V95.8C32.7141 95.9833 32.653 96.125 32.5308 96.225C32.4085 96.325 32.2353 96.375 32.0113 96.375H21.622V101.85H31.339C31.5631 101.85 31.7363 101.908 31.8585 102.025C31.9807 102.125 32.0418 102.267 32.0418 102.45V103.375C32.0418 103.542 31.9807 103.683 31.8585 103.8C31.7363 103.9 31.5631 103.95 31.339 103.95H21.622V109.625H32.2557C32.4798 109.625 32.653 109.675 32.7752 109.775C32.8974 109.875 32.9585 110.017 32.9585 110.2V111.175C32.9585 111.342 32.8974 111.483 32.7752 111.6C32.653 111.7 32.4798 111.75 32.2557 111.75H19.3914ZM37.0056 111.75C36.8019 111.75 36.6287 111.7 36.4861 111.6C36.3639 111.483 36.3028 111.342 36.3028 111.175V94.85C36.3028 94.6667 36.3639 94.525 36.4861 94.425C36.6287 94.3083 36.8019 94.25 37.0056 94.25H38.5334C38.7779 94.25 38.9612 94.3 39.0834 94.4C39.2057 94.5 39.277 94.5833 39.2973 94.65L45.7754 104.75L52.2839 94.65C52.3247 94.5833 52.3959 94.5 52.4978 94.4C52.6201 94.3 52.8034 94.25 53.0479 94.25H54.5451C54.7692 94.25 54.9424 94.3083 55.0646 94.425C55.2072 94.525 55.2785 94.6667 55.2785 94.85V111.175C55.2785 111.342 55.2072 111.483 55.0646 111.6C54.9424 111.7 54.7692 111.75 54.5451 111.75H53.0479C52.8442 111.75 52.671 111.7 52.5284 111.6C52.4062 111.483 52.3451 111.342 52.3451 111.175V98.875L47.2421 107.025C47.1606 107.192 47.0384 107.325 46.8754 107.425C46.7124 107.508 46.5087 107.55 46.2643 107.55H45.317C45.0522 107.55 44.8383 107.508 44.6753 107.425C44.5328 107.325 44.4105 107.192 44.3086 107.025L39.2057 98.875V111.175C39.2057 111.342 39.1343 111.483 38.9918 111.6C38.8695 111.7 38.7065 111.75 38.5029 111.75H37.0056ZM67.3161 112C65.5846 112 64.0975 111.758 62.8548 111.275C61.6122 110.775 60.6548 110.017 59.9825 109C59.3103 107.967 58.9335 106.675 58.8519 105.125C58.8316 104.392 58.8214 103.692 58.8214 103.025C58.8214 102.342 58.8316 101.633 58.8519 100.9C58.9335 99.3667 59.3205 98.0917 60.0131 97.075C60.7261 96.0417 61.7039 95.275 62.9465 94.775C64.2095 94.2583 65.6661 94 67.3161 94C68.9866 94 70.4431 94.2583 71.6858 94.775C72.9488 95.275 73.9368 96.0417 74.6497 97.075C75.3627 98.0917 75.7499 99.3667 75.811 100.9C75.8516 101.633 75.872 102.342 75.872 103.025C75.872 103.692 75.8516 104.392 75.811 105.125C75.7499 106.675 75.373 107.967 74.6804 109C74.008 110.017 73.0507 110.775 71.808 111.275C70.5653 111.758 69.0681 112 67.3161 112ZM67.3161 109.875C68.8847 109.875 70.1579 109.492 71.1357 108.725C72.1339 107.958 72.6738 106.717 72.7552 105C72.796 104.25 72.8163 103.583 72.8163 103C72.8163 102.4 72.796 101.733 72.7552 101C72.7145 99.85 72.4496 98.9167 71.9607 98.2C71.4923 97.4833 70.8607 96.9583 70.0662 96.625C69.2717 96.2917 68.355 96.125 67.3161 96.125C66.318 96.125 65.4216 96.2917 64.6271 96.625C63.8326 96.9583 63.191 97.4833 62.7021 98.2C62.2336 98.9167 61.9687 99.85 61.9076 101C61.8872 101.733 61.877 102.4 61.877 103C61.877 103.583 61.8872 104.25 61.9076 105C61.9891 106.717 62.5289 107.958 63.5271 108.725C64.5253 109.492 65.7883 109.875 67.3161 109.875ZM80.112 111.75C79.8879 111.75 79.7148 111.7 79.5926 111.6C79.4703 111.483 79.4092 111.342 79.4092 111.175V94.85C79.4092 94.6667 79.4703 94.525 79.5926 94.425C79.7148 94.3083 79.8879 94.25 80.112 94.25H81.6704C81.8945 94.25 82.0676 94.3083 82.1899 94.425C82.3324 94.525 82.4038 94.6667 82.4038 94.85V101.75H92.9153V94.85C92.9153 94.6667 92.9764 94.525 93.0986 94.425C93.2412 94.3083 93.4144 94.25 93.6181 94.25H95.1765C95.4009 94.25 95.5737 94.3083 95.6959 94.425C95.8382 94.525 95.9098 94.6667 95.9098 94.85V111.175C95.9098 111.342 95.8382 111.483 95.6959 111.6C95.5737 111.7 95.4009 111.75 95.1765 111.75H93.6181C93.4144 111.75 93.2412 111.7 93.0986 111.6C92.9764 111.483 92.9153 111.342 92.9153 111.175V104H82.4038V111.175C82.4038 111.342 82.3324 111.483 82.1899 111.6C82.0676 111.7 81.8945 111.75 81.6704 111.75H80.112ZM105.654 111.75C105.45 111.75 105.277 111.7 105.134 111.6C105.012 111.483 104.951 111.342 104.951 111.175V96.475H99.0839C98.8805 96.475 98.7077 96.425 98.5644 96.325C98.4422 96.2083 98.3811 96.0667 98.3811 95.9V94.85C98.3811 94.6667 98.4422 94.525 98.5644 94.425C98.7077 94.3083 98.8805 94.25 99.0839 94.25H113.812C114.037 94.25 114.209 94.3083 114.332 94.425C114.475 94.525 114.546 94.6667 114.546 94.85V95.9C114.546 96.0667 114.475 96.2083 114.332 96.325C114.209 96.425 114.037 96.475 113.812 96.475H107.976V111.175C107.976 111.342 107.905 111.483 107.762 111.6C107.64 111.7 107.467 111.75 107.243 111.75H105.654ZM124.33 111.75C124.107 111.75 123.933 111.7 123.811 111.6C123.689 111.483 123.628 111.342 123.628 111.175V94.85C123.628 94.6667 123.689 94.525 123.811 94.425C123.933 94.3083 124.107 94.25 124.33 94.25H139.396C139.619 94.25 139.792 94.3083 139.914 94.425C140.058 94.525 140.128 94.6667 140.128 94.85V111.175C140.128 111.342 140.058 111.483 139.914 111.6C139.792 111.7 139.619 111.75 139.396 111.75H137.837C137.633 111.75 137.46 111.7 137.317 111.6C137.195 111.483 137.135 111.342 137.135 111.175V96.5H126.622V111.175C126.622 111.342 126.551 111.483 126.408 111.6C126.286 111.7 126.113 111.75 125.889 111.75H124.33ZM145.198 111.75C144.973 111.75 144.801 111.7 144.678 111.6C144.556 111.483 144.495 111.342 144.495 111.175V94.85C144.495 94.6667 144.556 94.525 144.678 94.425C144.801 94.3083 144.973 94.25 145.198 94.25H152.959C154.467 94.25 155.77 94.45 156.87 94.85C157.991 95.25 158.857 95.85 159.468 96.65C160.079 97.4333 160.384 98.4167 160.384 99.6C160.384 100.783 160.079 101.767 159.468 102.55C158.857 103.333 157.991 103.925 156.87 104.325C155.77 104.725 154.467 104.925 152.959 104.925H147.551V111.175C147.551 111.342 147.479 111.483 147.337 111.6C147.215 111.7 147.042 111.75 146.817 111.75H145.198ZM147.52 102.825H152.806C154.314 102.825 155.445 102.55 156.198 102C156.952 101.45 157.329 100.65 157.329 99.6C157.329 98.5667 156.962 97.7667 156.229 97.2C155.495 96.6333 154.354 96.35 152.806 96.35H147.52V102.825ZM161.747 111.75C161.585 111.75 161.442 111.7 161.319 111.6C161.197 111.5 161.136 111.383 161.136 111.25C161.136 111.167 161.146 111.075 161.167 110.975L168.745 94.8C168.827 94.6333 168.938 94.5 169.081 94.4C169.224 94.3 169.438 94.25 169.722 94.25H171.8C172.066 94.25 172.269 94.3 172.411 94.4C172.575 94.5 172.697 94.6333 172.778 94.8L180.326 110.975C180.367 111.075 180.387 111.167 180.387 111.25C180.387 111.383 180.326 111.5 180.203 111.6C180.081 111.7 179.939 111.75 179.776 111.75H178.217C177.973 111.75 177.789 111.7 177.667 111.6C177.566 111.5 177.494 111.408 177.453 111.325L175.773 107.775H165.75L164.069 111.325C164.049 111.408 163.978 111.5 163.855 111.6C163.733 111.7 163.55 111.75 163.305 111.75H161.747ZM166.636 105.625H174.886L170.761 96.75L166.636 105.625ZM196.671 111.75C196.467 111.75 196.294 111.7 196.152 111.6C196.03 111.483 195.969 111.342 195.969 111.175V96.5H188.391V100.525C188.391 102.525 188.258 104.233 187.993 105.65C187.728 107.05 187.321 108.192 186.771 109.075C186.221 109.942 185.508 110.592 184.632 111.025C183.777 111.442 182.738 111.675 181.515 111.725C181.311 111.742 181.138 111.692 180.996 111.575C180.853 111.458 180.782 111.308 180.782 111.125V110.025C180.782 109.692 180.996 109.5 181.424 109.45C182.055 109.367 182.615 109.142 183.104 108.775C183.613 108.408 184.041 107.867 184.388 107.15C184.733 106.417 184.999 105.483 185.182 104.35C185.365 103.2 185.457 101.825 185.457 100.225V94.825C185.457 94.6583 185.518 94.525 185.641 94.425C185.783 94.3083 185.956 94.25 186.16 94.25H198.23C198.453 94.25 198.627 94.3083 198.749 94.425C198.892 94.525 198.963 94.6667 198.963 94.85V111.175C198.963 111.342 198.892 111.483 198.749 111.6C198.627 111.7 198.453 111.75 198.23 111.75H196.671ZM204.068 111.75C203.845 111.75 203.671 111.7 203.549 111.6C203.426 111.483 203.365 111.342 203.365 111.175V94.825C203.365 94.6583 203.426 94.525 203.549 94.425C203.671 94.3083 203.845 94.25 204.068 94.25H205.626C205.851 94.25 206.024 94.3083 206.146 94.425C206.289 94.525 206.36 94.6583 206.36 94.825V100.9H211.004C213.246 100.9 214.967 101.358 216.169 102.275C217.371 103.175 217.971 104.5 217.971 106.25C217.971 107.2 217.717 108.1 217.207 108.95C216.719 109.783 215.955 110.458 214.916 110.975C213.898 111.492 212.593 111.75 211.004 111.75H204.068ZM206.36 109.65H210.76C212.084 109.65 213.113 109.333 213.846 108.7C214.58 108.067 214.946 107.233 214.946 106.2C214.946 105.133 214.601 104.333 213.907 103.8C213.215 103.25 212.166 102.975 210.76 102.975H206.36V109.65ZM221.563 111.75C221.339 111.75 221.166 111.7 221.043 111.6C220.921 111.483 220.86 111.342 220.86 111.175V94.85C220.86 94.6667 220.921 94.525 221.043 94.425C221.166 94.3083 221.339 94.25 221.563 94.25H223.121C223.346 94.25 223.518 94.3083 223.641 94.425C223.784 94.525 223.855 94.6667 223.855 94.85V101.75H234.366V94.85C234.366 94.6667 234.427 94.525 234.549 94.425C234.693 94.3083 234.865 94.25 235.069 94.25H236.627C236.852 94.25 237.024 94.3083 237.147 94.425C237.29 94.525 237.361 94.6667 237.361 94.85V111.175C237.361 111.342 237.29 111.483 237.147 111.6C237.024 111.7 236.852 111.75 236.627 111.75H235.069C234.865 111.75 234.693 111.7 234.549 111.6C234.427 111.483 234.366 111.342 234.366 111.175V104H223.855V111.175C223.855 111.342 223.784 111.483 223.641 111.6C223.518 111.7 223.346 111.75 223.121 111.75H221.563ZM242.43 111.75C242.206 111.75 242.033 111.692 241.911 111.575C241.788 111.458 241.727 111.317 241.727 111.15V94.85C241.727 94.6667 241.788 94.525 241.911 94.425C242.053 94.3083 242.227 94.25 242.43 94.25H244.019C244.222 94.25 244.386 94.3083 244.508 94.425C244.65 94.525 244.722 94.6667 244.722 94.85V107.775L256.12 94.6C256.181 94.5333 256.262 94.4583 256.364 94.375C256.486 94.2917 256.659 94.25 256.883 94.25H258.381C258.584 94.25 258.747 94.3083 258.87 94.425C259.012 94.525 259.084 94.6667 259.084 94.85V111.175C259.084 111.342 259.012 111.483 258.87 111.6C258.747 111.7 258.584 111.75 258.381 111.75H256.822C256.619 111.75 256.445 111.7 256.303 111.6C256.161 111.483 256.089 111.342 256.089 111.175V98.35L244.722 111.4C244.681 111.45 244.6 111.525 244.477 111.625C244.355 111.708 244.182 111.75 243.958 111.75H242.43ZM262.206 111.75C262.043 111.75 261.89 111.7 261.748 111.6C261.625 111.5 261.564 111.383 261.564 111.25C261.564 111.183 261.575 111.125 261.595 111.075C261.636 111.008 261.667 110.958 261.687 110.925L268.684 102.85L262.023 95.075C261.962 94.975 261.931 94.8667 261.931 94.75C261.931 94.6167 261.992 94.5 262.114 94.4C262.237 94.3 262.379 94.25 262.542 94.25H264.376C264.579 94.25 264.742 94.2917 264.864 94.375C264.987 94.4417 265.098 94.5417 265.201 94.675L270.579 100.925L275.926 94.675C276.007 94.5417 276.109 94.4417 276.232 94.375C276.374 94.2917 276.537 94.25 276.72 94.25H278.462C278.625 94.25 278.768 94.3 278.89 94.4C279.012 94.5 279.073 94.6167 279.073 94.75C279.073 94.8667 279.032 94.975 278.951 95.075L272.381 102.875L279.348 110.925C279.389 110.958 279.42 111.008 279.44 111.075C279.46 111.125 279.471 111.183 279.471 111.25C279.471 111.383 279.409 111.5 279.287 111.6C279.165 111.7 279.012 111.75 278.829 111.75H276.965C276.782 111.75 276.618 111.708 276.476 111.625C276.354 111.542 276.242 111.45 276.14 111.35L270.456 104.85L264.803 111.35C264.701 111.45 264.589 111.542 264.467 111.625C264.345 111.708 264.182 111.75 263.978 111.75H262.206ZM289.186 111.75C288.981 111.75 288.809 111.7 288.666 111.6C288.544 111.483 288.483 111.342 288.483 111.175V94.85C288.483 94.6667 288.544 94.525 288.666 94.425C288.809 94.3083 288.981 94.25 289.186 94.25H290.714C290.958 94.25 291.141 94.3 291.264 94.4C291.386 94.5 291.456 94.5833 291.477 94.65L297.955 104.75L304.464 94.65C304.504 94.5833 304.576 94.5 304.678 94.4C304.8 94.3 304.983 94.25 305.228 94.25H306.725C306.949 94.25 307.122 94.3083 307.245 94.425C307.387 94.525 307.459 94.6667 307.459 94.85V111.175C307.459 111.342 307.387 111.483 307.245 111.6C307.122 111.7 306.949 111.75 306.725 111.75H305.228C305.024 111.75 304.851 111.7 304.708 111.6C304.586 111.483 304.525 111.342 304.525 111.175V98.875L299.422 107.025C299.34 107.192 299.218 107.325 299.056 107.425C298.892 107.508 298.689 107.55 298.444 107.55H297.497C297.232 107.55 297.018 107.508 296.855 107.425C296.712 107.325 296.59 107.192 296.489 107.025L291.386 98.875V111.175C291.386 111.342 291.314 111.483 291.172 111.6C291.05 111.7 290.886 111.75 290.683 111.75H289.186ZM310.39 111.75C310.227 111.75 310.085 111.7 309.962 111.6C309.84 111.5 309.779 111.383 309.779 111.25C309.779 111.167 309.789 111.075 309.81 110.975L317.388 94.8C317.469 94.6333 317.581 94.5 317.724 94.4C317.866 94.3 318.08 94.25 318.365 94.25H320.443C320.708 94.25 320.912 94.3 321.054 94.4C321.218 94.5 321.34 94.6333 321.421 94.8L328.969 110.975C329.01 111.075 329.03 111.167 329.03 111.25C329.03 111.383 328.969 111.5 328.846 111.6C328.724 111.7 328.582 111.75 328.419 111.75H326.86C326.616 111.75 326.432 111.7 326.31 111.6C326.208 111.5 326.137 111.408 326.096 111.325L324.416 107.775H314.393L312.712 111.325C312.692 111.408 312.621 111.5 312.499 111.6C312.376 111.7 312.193 111.75 311.949 111.75H310.39ZM315.279 105.625H323.53L319.404 96.75L315.279 105.625ZM332.083 111.75C331.859 111.75 331.686 111.7 331.564 111.6C331.442 111.483 331.381 111.342 331.381 111.175V94.825C331.381 94.6583 331.442 94.525 331.564 94.425C331.686 94.3083 331.859 94.25 332.083 94.25H333.642C333.865 94.25 334.039 94.3083 334.161 94.425C334.304 94.525 334.375 94.6583 334.375 94.825V109.5H341.862V94.825C341.862 94.6583 341.923 94.525 342.045 94.425C342.187 94.3083 342.36 94.25 342.564 94.25H344.123C344.346 94.25 344.52 94.3083 344.642 94.425C344.785 94.525 344.856 94.6583 344.856 94.825V109.5H352.343V94.825C352.343 94.6583 352.404 94.525 352.526 94.425C352.668 94.3083 352.841 94.25 353.045 94.25H354.604C354.827 94.25 355.001 94.3083 355.123 94.425C355.266 94.525 355.337 94.6583 355.337 94.825V111.175C355.337 111.342 355.266 111.483 355.123 111.6C355.001 111.7 354.827 111.75 354.604 111.75H332.083ZM360.44 111.75C360.216 111.75 360.043 111.692 359.921 111.575C359.798 111.458 359.737 111.317 359.737 111.15V94.85C359.737 94.6667 359.798 94.525 359.921 94.425C360.063 94.3083 360.236 94.25 360.44 94.25H362.029C362.232 94.25 362.396 94.3083 362.518 94.425C362.66 94.525 362.732 94.6667 362.732 94.85V107.775L374.129 94.6C374.191 94.5333 374.272 94.4583 374.374 94.375C374.496 94.2917 374.669 94.25 374.893 94.25H376.391C376.594 94.25 376.757 94.3083 376.88 94.425C377.022 94.525 377.093 94.6667 377.093 94.85V111.175C377.093 111.342 377.022 111.483 376.88 111.6C376.757 111.7 376.594 111.75 376.391 111.75H374.832C374.628 111.75 374.455 111.7 374.313 111.6C374.17 111.483 374.099 111.342 374.099 111.175V98.35L362.732 111.4C362.691 111.45 362.61 111.525 362.487 111.625C362.365 111.708 362.191 111.75 361.968 111.75H360.44ZM382.202 111.75C381.978 111.75 381.805 111.7 381.683 111.6C381.56 111.483 381.499 111.342 381.499 111.175V94.85C381.499 94.6667 381.56 94.525 381.683 94.425C381.805 94.3083 381.978 94.25 382.202 94.25H383.761C383.984 94.25 384.158 94.3083 384.28 94.425C384.422 94.525 384.494 94.6667 384.494 94.85V101.75H395.005V94.85C395.005 94.6667 395.067 94.525 395.189 94.425C395.331 94.3083 395.504 94.25 395.708 94.25H397.267C397.49 94.25 397.664 94.3083 397.786 94.425C397.928 94.525 398 94.6667 398 94.85V111.175C398 111.342 397.928 111.483 397.786 111.6C397.664 111.7 397.49 111.75 397.267 111.75H395.708C395.504 111.75 395.331 111.7 395.189 111.6C395.067 111.483 395.005 111.342 395.005 111.175V104H384.494V111.175C384.494 111.342 384.422 111.483 384.28 111.6C384.158 111.7 383.984 111.75 383.761 111.75H382.202Z" fill="white"/>
<path d="M112.132 19.6486H113.699L131.497 40.8052L149.267 19.6486H150.947L154.364 63.3515H149.21L146.618 30.4585L131.554 48.5573H130.984L116.376 30.7365L114.097 63.3515H109L112.132 19.6486ZM178.997 19.6177H181.987L199.443 63.3515H193.691L189.875 53.7769H169.685L165.556 63.3515H160.145L178.997 19.6177ZM187.825 48.5881L184.18 39.4152C183.724 38.2622 183.278 37.068 182.841 35.8325L181.702 32.3425C180.981 30.0776 180.553 28.5333 180.421 27.7097H180.079C179.927 28.5333 179.585 29.707 179.054 31.2306C179.054 31.2306 178.57 32.569 177.601 35.2457C177.165 36.3988 176.69 37.5724 176.178 38.7667L171.934 48.5881H187.825ZM206.506 53.499C210.037 55.9698 213.625 57.5964 217.27 58.379C218.504 58.6466 219.757 58.7804 221.029 58.7804C222.301 58.7804 223.611 58.6569 224.959 58.4098C226.326 58.1422 227.531 57.7097 228.575 57.1127C230.93 55.7535 232.107 53.6638 232.107 50.8429C232.107 47.9396 230.132 45.9115 226.183 44.7585C225.025 44.429 223.791 44.1304 222.481 43.8627L218.409 43.0906C213.226 42.1229 209.61 40.7022 207.559 38.8285C205.661 37.1194 204.712 34.8133 204.712 31.9101C204.712 27.9568 206.458 24.755 209.951 22.3047C213.065 20.1016 216.738 19 220.972 19C225.035 19 228.689 19.7207 231.936 21.162C233.094 21.6561 234.299 22.2739 235.552 23.0151L233.616 28.0494C230.863 26.2581 227.617 25.0947 223.877 24.5594C222.7 24.3741 221.56 24.2814 220.459 24.2814C217.935 24.2814 215.704 24.8065 213.767 25.8566C211.508 27.092 210.378 28.801 210.378 30.9835C210.378 33.2897 211.812 34.978 214.679 36.0487C215.969 36.5429 217.431 36.9444 219.064 37.2533L224.133 38.2106C228.404 39.0756 231.366 40.0535 233.018 41.1448C234.67 42.2361 235.885 43.4612 236.663 44.8202C237.46 46.1586 237.859 47.9499 237.859 50.1944C237.859 52.4181 237.375 54.4153 236.407 56.186C235.438 57.9567 234.147 59.4187 232.534 60.5719C229.382 62.8573 225.367 64 220.488 64C215.932 64 211.65 62.9294 207.645 60.7879C206.335 60.088 205.12 59.2849 204 58.379L206.506 53.499ZM246.972 19.6177H252.24V43.3685H276.987V19.6177H282.255V63.3515H276.987V48.5573H252.24V63.3515H246.972V19.6177ZM292.763 19.6177H298.03V63.3515H292.763V19.6177ZM308.539 19.6177H313.152L339.123 54.1477V19.6177H343.822V63.3515H339.409L313.238 28.5745V63.3515H308.539V19.6177ZM354.33 19.6177H384.431V24.8065H359.599V36.6047H381.725V41.7935H359.599V58.1627H385V63.3515H354.33V19.6177Z" fill="white"/>
<path d="M20 73V9H54.1312C62.4334 9 68.4679 10.8551 72.2346 14.5652C76.0782 18.2091 78 23.1781 78 29.4721C78 33.9772 76.6932 37.8199 74.0795 41C71.4659 44.1801 67.6991 46.3996 62.7793 47.6584C64.163 48.5197 65.2392 49.4472 66.008 50.441C66.7767 51.4348 67.5454 52.7598 68.3141 54.4161L77.6541 73H64.7396L55.6302 55.1118C54.7846 53.3892 53.7469 52.1636 52.5169 51.4348C51.3638 50.706 49.3651 50.3416 46.5209 50.3416H32.5686V73H20ZM32.5686 41.5963H50.7873C55.3227 41.5963 58.8973 40.6356 61.5109 38.7143C64.1246 36.793 65.4314 33.7122 65.4314 29.4721C65.4314 21.4555 60.9344 17.4472 51.9404 17.4472H32.5686V41.5963Z" fill="black"/>
</svg>
