<svg width="800" height="800" viewBox="0 0 800 800" fill="none" xmlns="http://www.w3.org/2000/svg">
<g clip-path="url(#clip0_10_1154)">
<path fill-rule="evenodd" clip-rule="evenodd" d="M411.14 6L808.281 403.14L411.14 800.281L14 403.14L411.14 6ZM411.14 53.1405L61.1405 403.14L411.14 753.14L761.14 403.14L411.14 53.1405ZM377.807 303.14C426.807 303.14 427.787 335.154 427.807 336.434L427.807 336.474H394.474L394.473 369.806L477.807 369.807V386.474L611.14 353.14L477.807 453.14V503.14H277.807L277.806 403.139L244.474 403.14V436.474H261.14V469.807H211.14V369.807L361.139 369.806L361.14 336.474H327.807L327.808 336.434C327.827 335.154 328.807 303.14 377.807 303.14ZM611.14 386.474V386C611.14 386.474 611.14 386.474 611.14 386.474C611.883 387.5 611.883 387.5 611.14 386.474Z" fill="black"/>
<path d="M610.5 393C610.5 393 642.11 424.5 642.11 450C642.11 475.5 579.11 478.068 578.89 450C578.67 421.932 610.5 393 610.5 393Z" fill="#E9B44D"/>
</g>
<defs>
<clipPath id="clip0_10_1154">
<rect width="800" height="800" fill="white"/>
</clipPath>
</defs>
</svg>
