<svg width="800" height="800" viewBox="0 0 800 800" fill="none" xmlns="http://www.w3.org/2000/svg">
<g clip-path="url(#clip0_10_1158)">
<path d="M400.001 409.795C450.133 409.795 568.001 349.461 568.001 204.893C568.001 184.726 567.511 165.247 565.848 146.837C563.12 110.619 555.701 78.5202 537.232 53.9206C513.54 20.4415 472.086 0 400.001 0C327.931 0 286.478 20.4353 262.785 53.9019C244.305 78.5078 236.882 110.615 234.154 146.846C232.491 165.251 232.001 184.73 232.001 204.893C232.001 349.461 349.869 409.795 400.001 409.795ZM454.838 75.0645C449.946 87.4308 447.494 93.615 442.598 105.979C410.994 97.05 389.004 97.05 357.399 105.979C352.504 93.615 350.056 87.4308 345.158 75.0645C384.684 63.0992 415.318 63.1013 454.838 75.0645ZM256.995 173.55C258.93 177.785 267.153 194.06 279.881 195.586C294.512 197.342 318.798 143.77 400.001 143.639C481.202 143.77 505.49 197.342 520.121 195.586C532.849 194.058 541.072 177.783 543.006 173.55C543.401 183.924 543.545 194.424 543.545 204.895C543.545 275.561 512.341 319.345 486.166 343.63C453.184 374.234 416.565 385.341 400.001 385.341C383.435 385.341 346.818 374.234 313.836 343.63C287.661 319.345 256.457 275.561 256.457 204.895C256.457 194.424 256.601 183.924 256.995 173.55Z" fill="black"/>
<path d="M711.896 619.931C703.32 566.601 685.663 497.901 650.245 473.484C626.059 456.81 541.674 411.725 505.639 392.475L505.031 392.15C500.91 389.95 495.883 390.39 492.209 393.275C473.334 408.093 452.656 418.08 430.754 422.957C426.884 423.82 423.709 426.569 422.302 430.274L410.302 461.908H389.698L377.698 430.274C376.291 426.569 373.116 423.82 369.246 422.957C347.344 418.08 326.668 408.093 307.791 393.275C304.117 390.39 299.088 389.948 294.969 392.15C259.364 411.177 173.949 457.18 149.859 473.414C109.088 500.881 91.2627 600.283 88.1041 619.931C87.7903 621.88 87.9711 623.873 88.6298 625.735C89.6169 628.522 107.081 673.687 202.587 702.632V712.247C202.587 718.12 207.352 722.883 213.224 722.883L344.79 722.991C342.259 737.485 336.852 761.353 326.021 784.939C324.506 788.226 324.77 792.06 326.734 795.111C328.689 798.165 332.064 800.004 335.686 800.004H464.305C467.927 800.004 471.304 798.163 473.26 795.111C475.213 792.06 475.481 788.226 473.977 784.939C463.15 761.355 457.731 737.485 455.195 722.991L586.774 722.883C592.644 722.883 597.411 718.12 597.411 712.247V702.632C692.917 673.687 710.381 628.522 711.368 625.735C712.029 623.873 712.21 621.878 711.896 619.931ZM562.914 693.412H544.324V689.742C544.324 684.312 539.921 679.907 534.489 679.907C529.055 679.907 524.655 684.31 524.655 689.742V693.412H512.248V689.742C512.248 684.312 507.848 679.907 502.414 679.907C496.989 679.907 492.581 684.31 492.581 689.742V693.412H237.078V491.374H562.914V693.412Z" fill="black"/>
<path d="M358.287 604.932C350.781 604.932 343.732 607.86 338.435 613.173C331.204 620.427 328.507 631.044 331.395 640.881C331.563 641.453 332.02 641.895 332.6 642.043C333.178 642.186 333.791 642.02 334.213 641.598L351.864 623.894C352.923 624.322 355.594 625.789 360.531 630.714C365.57 635.736 367.006 638.409 367.409 639.333L349.727 657.069C349.305 657.491 349.139 658.106 349.289 658.682C349.438 659.259 349.881 659.717 350.455 659.883C353 660.623 355.637 660.997 358.295 660.997C365.799 660.997 372.847 658.071 378.142 652.757C386.452 644.42 388.399 632.125 384.029 621.911L400.539 605.401L407.523 612.385L402.761 617.148C401.726 618.185 401.154 619.561 401.154 621.026C401.154 622.491 401.726 623.869 402.761 624.903L436.402 658.545C437.437 659.579 438.814 660.151 440.279 660.151C441.744 660.151 443.122 659.579 444.159 658.545L462.383 640.32C463.42 639.283 463.99 637.906 463.99 636.441C463.99 634.976 463.418 633.598 462.383 632.561L428.744 598.92C427.705 597.885 426.327 597.314 424.862 597.314C423.397 597.314 422.022 597.885 420.985 598.92L416.222 603.683L409.238 596.698L430.65 575.286C434.101 576.77 437.846 577.564 441.715 577.564C449.221 577.564 456.27 574.638 461.567 569.325C468.796 562.07 471.495 551.454 468.611 541.614C468.443 541.041 467.986 540.6 467.408 540.453C466.83 540.305 466.217 540.475 465.795 540.897L448.14 558.606C447.081 558.176 444.412 556.711 439.473 551.786C434.434 546.761 432.998 544.089 432.595 543.164L450.277 525.428C450.699 525.007 450.865 524.392 450.715 523.816C450.566 523.238 450.123 522.781 449.549 522.615C447.004 521.877 444.367 521.501 441.713 521.501C434.207 521.501 427.159 524.429 421.864 529.742C413.554 538.079 411.607 550.375 415.977 560.589L394.552 582.013L372.619 560.077C372.602 560.048 372.6 560.013 372.583 559.984L362.565 542.807C362.393 542.51 362.156 542.256 361.875 542.061L344.973 530.335C344.036 529.684 342.774 529.801 341.972 530.603L334.443 538.131C333.639 538.936 333.527 540.199 334.175 541.134L345.906 558.035C346.101 558.315 346.357 558.552 346.652 558.725L363.825 568.741C363.858 568.759 363.893 568.766 363.926 568.784L385.854 590.714L369.356 607.211C365.901 605.725 362.156 604.932 358.287 604.932ZM414.726 620.652C415.925 619.455 417.87 619.455 419.065 620.654L440.651 642.238C441.848 643.437 441.85 645.38 440.651 646.579C439.452 647.776 437.507 647.776 436.31 646.579L414.726 624.995C413.525 623.794 413.525 621.851 414.726 620.652ZM424.49 610.889C425.69 609.688 427.632 609.688 428.834 610.889L450.416 632.472C451.615 633.669 451.615 635.614 450.416 636.813C449.221 638.01 447.274 638.01 446.075 636.811L424.49 615.23C423.294 614.027 423.294 612.086 424.49 610.889Z" fill="#E9B44D"/>
</g>
<defs>
<clipPath id="clip0_10_1158">
<rect width="800" height="800" fill="white"/>
</clipPath>
</defs>
</svg>
