<svg width="800" height="800" viewBox="0 0 800 800" fill="none" xmlns="http://www.w3.org/2000/svg">
<path d="M298.991 733.333H498.99C665.657 733.333 732.323 666.666 732.323 500V300C732.323 133.333 665.657 66.6665 498.99 66.6665H298.991C132.324 66.6665 65.6577 133.333 65.6577 300V500C65.6577 666.666 132.324 733.333 298.991 733.333Z" stroke="black" stroke-width="50" stroke-linecap="round" stroke-linejoin="round"/>
<path d="M65.6577 423.337L265.658 422.67C290.658 422.67 318.658 441.67 327.991 465.003L365.99 561.003C374.657 582.67 388.323 582.67 396.99 561.003L473.323 367.337C480.657 348.67 494.323 348.003 503.657 365.67L538.323 431.337C548.657 451.003 575.323 467.003 597.323 467.003H732.657" stroke="#E9B44D" stroke-width="50" stroke-linecap="round" stroke-linejoin="round"/>
</svg>
