<svg width="21" height="21" viewBox="0 0 21 21" fill="none" xmlns="http://www.w3.org/2000/svg">
<path d="M8.99612 14.723L16.0461 7.67305L14.6461 6.27305L8.99612 11.923L6.14612 9.07305L4.74612 10.473L8.99612 14.723ZM10.3961 20.123C9.01278 20.123 7.71278 19.8605 6.49612 19.3355C5.27945 18.8105 4.22112 18.098 3.32112 17.198C2.42112 16.298 1.70862 15.2397 1.18362 14.023C0.658618 12.8064 0.396118 11.5064 0.396118 10.123C0.396118 8.73971 0.658618 7.43971 1.18362 6.22305C1.70862 5.00638 2.42112 3.94805 3.32112 3.04805C4.22112 2.14805 5.27945 1.43555 6.49612 0.910547C7.71278 0.385547 9.01278 0.123047 10.3961 0.123047C11.7795 0.123047 13.0795 0.385547 14.2961 0.910547C15.5128 1.43555 16.5711 2.14805 17.4711 3.04805C18.3711 3.94805 19.0836 5.00638 19.6086 6.22305C20.1336 7.43971 20.3961 8.73971 20.3961 10.123C20.3961 11.5064 20.1336 12.8064 19.6086 14.023C19.0836 15.2397 18.3711 16.298 17.4711 17.198C16.5711 18.098 15.5128 18.8105 14.2961 19.3355C13.0795 19.8605 11.7795 20.123 10.3961 20.123ZM10.3961 18.123C12.6295 18.123 14.5211 17.348 16.0711 15.798C17.6211 14.248 18.3961 12.3564 18.3961 10.123C18.3961 7.88971 17.6211 5.99805 16.0711 4.44805C14.5211 2.89805 12.6295 2.12305 10.3961 2.12305C8.16278 2.12305 6.27112 2.89805 4.72112 4.44805C3.17112 5.99805 2.39612 7.88971 2.39612 10.123C2.39612 12.3564 3.17112 14.248 4.72112 15.798C6.27112 17.348 8.16278 18.123 10.3961 18.123Z" fill="#066839"/>
</svg>
