<svg width="16" height="12" viewBox="0 0 16 12" fill="none" xmlns="http://www.w3.org/2000/svg">
<path d="M2.2151 11.1017L4.61135 6.92846C4.49602 6.99262 4.36144 7.03754 4.2076 7.06321C4.05377 7.08887 3.89994 7.10171 3.7461 7.10171C2.81277 7.10171 2.0281 6.77729 1.3921 6.12846C0.756271 5.47979 0.438354 4.70162 0.438354 3.79396C0.438354 2.86062 0.756271 2.07604 1.3921 1.44021C2.0281 0.804205 2.81277 0.486206 3.7461 0.486206C4.65377 0.486206 5.43194 0.804205 6.0806 1.44021C6.72927 2.07604 7.05361 2.86062 7.05361 3.79396C7.05361 4.11312 7.01419 4.41279 6.93535 4.69296C6.85652 4.97312 6.74469 5.23754 6.59985 5.48621L3.36135 11.1017H2.2151ZM10.9844 11.1017L13.3806 6.92846C13.2653 6.99262 13.1307 7.03754 12.9769 7.06321C12.823 7.08887 12.6691 7.10171 12.5151 7.10171C11.5818 7.10171 10.7972 6.77729 10.1614 6.12846C9.52552 5.47979 9.20761 4.70162 9.20761 3.79396C9.20761 2.84779 9.52552 2.05996 10.1614 1.43046C10.7972 0.800957 11.5818 0.486206 12.5151 0.486206C13.4229 0.486206 14.2012 0.804205 14.8499 1.44021C15.4985 2.07604 15.8229 2.86062 15.8229 3.79396C15.8229 4.11312 15.7834 4.41279 15.7046 4.69296C15.6258 4.97312 15.5139 5.23754 15.3691 5.48621L12.1306 11.1017H10.9844Z" fill="#121212"/>
</svg>
