<svg width="158" height="22" viewBox="0 0 158 22" fill="none" xmlns="http://www.w3.org/2000/svg">
<path fill-rule="evenodd" clip-rule="evenodd" d="M66.8463 0.997583C70.4465 1.06494 73.9883 1.13121 77.4385 1.13121H132.451C134.614 1.13121 136.808 1.10943 139.019 1.08748C143.509 1.04291 148.071 0.997635 152.579 1.13255C152.991 1.14486 153.795 1.18439 154.434 1.2484L154.444 1.24933C154.666 1.27156 155.194 1.32433 155.642 1.46353L155.645 1.46451C155.748 1.4965 156.13 1.61518 156.532 1.89553C156.734 2.0364 157.173 2.3759 157.49 2.98554C157.875 3.72471 157.962 4.64914 157.608 5.51724C157.314 6.23696 156.829 6.64238 156.601 6.81102C156.344 7.00066 156.111 7.11124 155.979 7.16789C155.716 7.28184 155.483 7.34006 155.368 7.36685C148.621 8.93897 141.524 9.27361 134.766 9.59227C132.149 9.71565 129.584 9.83664 127.109 10.0261C111.847 11.1946 98.2482 12.1111 83.1975 13.1253L81.7996 13.2195C79.7063 13.3606 77.6164 13.4981 75.5292 13.6354C67.7763 14.1453 60.0613 14.6528 52.3541 15.3336C36.1553 16.7644 20.1146 19.1663 3.94928 21.6921C2.31229 21.9479 0.777892 20.8282 0.522113 19.1912C0.266333 17.5542 1.38603 16.0198 3.02302 15.7641C19.1916 13.2377 35.4079 10.8071 51.8262 9.35686C59.6072 8.66958 67.4095 8.15641 75.1715 7.64589C77.2496 7.5092 79.3249 7.37271 81.3961 7.23312L82.7847 7.13953C82.8259 7.13675 82.8671 7.13398 82.9082 7.13121H77.4385C73.7293 7.13121 70.012 7.06366 66.3013 6.99624C52.3179 6.74215 38.4291 6.48978 25.4281 9.8604C23.8242 10.2762 22.187 9.31313 21.7712 7.7093C21.3554 6.10547 22.3185 4.46823 23.9223 4.05242C37.8013 0.454161 52.7703 0.734226 66.8463 0.997583Z" fill="#E9B44D"/>
</svg>
