<svg width="388" height="126" viewBox="0 0 388 126" fill="none" xmlns="http://www.w3.org/2000/svg">
<rect width="97" height="97" fill="url(#paint0_linear_5_1029)"/>
<path d="M18 89V19H55.0736C64.0915 19 70.6461 21.029 74.7376 25.087C78.9125 29.0725 81 34.5073 81 41.3913C81 46.3188 79.5805 50.5217 76.7415 54C73.9026 57.4783 69.8111 59.9058 64.4672 61.2826C65.9702 62.2246 67.1392 63.2391 67.9742 64.3261C68.8091 65.413 69.6441 66.8623 70.4791 68.6739L80.6243 89H66.5964L56.7018 69.4348C55.7833 67.5507 54.6561 66.2101 53.3201 65.413C52.0676 64.6159 49.8966 64.2174 46.8072 64.2174H31.6521V89H18ZM31.6521 54.6522H51.4414C56.3678 54.6522 60.2505 53.6015 63.0895 51.5C65.9284 49.3986 67.3479 46.029 67.3479 41.3913C67.3479 32.6232 62.4632 28.2391 52.6938 28.2391H31.6521V54.6522Z" fill="#ECECEC"/>
<path d="M108 90V35H158.326V42.2593H120.217V58.913H154.179V66.087H120.217V82.8261H158.326V90H108ZM169.624 90V35H201.792C207.322 35 211.88 35.7971 215.467 37.3913C219.053 38.9855 221.706 41.1775 223.425 43.9674C225.143 46.7003 226.003 49.8318 226.003 53.3618C226.003 58.8276 223.761 63.2117 219.278 66.514C214.869 69.8163 208.891 71.4674 201.344 71.4674H181.842V90H169.624ZM181.842 64.1227H199.102C203.959 64.1227 207.621 63.1548 210.087 61.2189C212.553 59.2831 213.785 56.6641 213.785 53.3618C213.785 49.8318 212.59 47.0989 210.199 45.163C207.882 43.2272 204.37 42.2593 199.663 42.2593H181.842V64.1227ZM224.631 90L252.204 35H265.878L293.228 90H280.673L273.5 75.823H244.47L237.297 90H224.631ZM246.376 68.6491H271.482L258.929 43.455L246.376 68.6491ZM305.242 90V35H317.459V90H305.242ZM331.622 90V35H364.799C372.869 35 378.734 36.5942 382.396 39.7826C386.131 42.9141 388 47.1843 388 52.5932C388 56.4648 386.729 59.7671 384.189 62.5C381.648 65.2329 377.986 67.1402 373.205 68.2221C374.55 68.9623 375.595 69.7593 376.343 70.6134C377.089 71.4674 377.837 72.6061 378.585 74.0295L387.664 90H375.11L366.256 74.6273C365.433 73.147 364.424 72.0936 363.229 71.4674C362.109 70.8411 360.165 70.528 357.401 70.528H343.839V90H331.622ZM343.839 63.0124H361.548C365.956 63.0124 369.431 62.1868 371.972 60.5357C374.511 58.8846 375.783 56.2371 375.783 52.5932C375.783 45.7039 371.412 42.2593 362.669 42.2593H343.839V63.0124Z" fill="url(#paint1_linear_5_1029)"/>
<path d="M0.685146 125.75C0.46669 125.75 0.297889 125.7 0.178734 125.6C0.0595779 125.483 0 125.342 0 125.175V108.85C0 108.667 0.0595779 108.525 0.178734 108.425C0.297889 108.308 0.46669 108.25 0.685146 108.25H8.25154C9.72115 108.25 10.9921 108.45 12.0645 108.85C13.1568 109.25 14.0008 109.85 14.5966 110.65C15.1924 111.433 15.4902 112.417 15.4902 113.6C15.4902 114.783 15.1924 115.767 14.5966 116.55C14.0008 117.333 13.1568 117.925 12.0645 118.325C10.9921 118.725 9.72115 118.925 8.25154 118.925H2.97889V125.175C2.97889 125.342 2.90938 125.483 2.77037 125.6C2.65122 125.7 2.48241 125.75 2.26396 125.75H0.685146ZM2.9491 116.825H8.10259C9.57221 116.825 10.6744 116.55 11.4092 116C12.1439 115.45 12.5114 114.65 12.5114 113.6C12.5114 112.567 12.1539 111.767 11.439 111.2C10.724 110.633 9.61187 110.35 8.10259 110.35H2.9491V116.825ZM18.9042 125.75C18.6857 125.75 18.5169 125.7 18.3977 125.6C18.2786 125.483 18.219 125.342 18.219 125.175V108.85C18.219 108.667 18.2786 108.525 18.3977 108.425C18.5169 108.308 18.6857 108.25 18.9042 108.25H31.207C31.4254 108.25 31.5942 108.308 31.7134 108.425C31.8326 108.525 31.8921 108.667 31.8921 108.85V109.8C31.8921 109.983 31.8326 110.125 31.7134 110.225C31.5942 110.325 31.4254 110.375 31.207 110.375H21.0787V115.85H30.5516C30.77 115.85 30.9389 115.908 31.058 116.025C31.1772 116.125 31.2368 116.267 31.2368 116.45V117.375C31.2368 117.542 31.1772 117.683 31.058 117.8C30.9389 117.9 30.77 117.95 30.5516 117.95H21.0787V123.625H31.4453C31.6637 123.625 31.8326 123.675 31.9517 123.775C32.0709 123.875 32.1304 124.017 32.1304 124.2V125.175C32.1304 125.342 32.0709 125.483 31.9517 125.6C31.8326 125.7 31.6637 125.75 31.4453 125.75H18.9042ZM36.0758 125.75C35.8772 125.75 35.7084 125.7 35.5694 125.6C35.4502 125.483 35.3907 125.342 35.3907 125.175V108.85C35.3907 108.667 35.4502 108.525 35.5694 108.425C35.7084 108.308 35.8772 108.25 36.0758 108.25H37.5652C37.8036 108.25 37.9823 108.3 38.1014 108.4C38.2206 108.5 38.2901 108.583 38.31 108.65L44.6252 118.75L50.9703 108.65C51.01 108.583 51.0795 108.5 51.1788 108.4C51.2979 108.3 51.4767 108.25 51.715 108.25H53.1746C53.3931 108.25 53.5619 108.308 53.6811 108.425C53.82 108.525 53.8896 108.667 53.8896 108.85V125.175C53.8896 125.342 53.82 125.483 53.6811 125.6C53.5619 125.7 53.3931 125.75 53.1746 125.75H51.715C51.5164 125.75 51.3476 125.7 51.2086 125.6C51.0894 125.483 51.0298 125.342 51.0298 125.175V112.875L46.0551 121.025C45.9757 121.192 45.8565 121.325 45.6976 121.425C45.5387 121.508 45.3402 121.55 45.1019 121.55H44.1784C43.9203 121.55 43.7117 121.508 43.5528 121.425C43.4138 121.325 43.2947 121.192 43.1954 121.025L38.2206 112.875V125.175C38.2206 125.342 38.1511 125.483 38.0121 125.6C37.8929 125.7 37.734 125.75 37.5355 125.75H36.0758ZM65.6248 126C63.9367 126 62.487 125.758 61.2756 125.275C60.0642 124.775 59.1308 124.017 58.4754 123C57.8201 121.967 57.4527 120.675 57.3732 119.125C57.3534 118.392 57.3434 117.692 57.3434 117.025C57.3434 116.342 57.3534 115.633 57.3732 114.9C57.4527 113.367 57.83 112.092 58.5052 111.075C59.2003 110.042 60.1535 109.275 61.3649 108.775C62.5962 108.258 64.0162 108 65.6248 108C67.2533 108 68.6732 108.258 69.8847 108.775C71.1159 109.275 72.0791 110.042 72.7741 111.075C73.4692 112.092 73.8466 113.367 73.9062 114.9C73.9458 115.633 73.9657 116.342 73.9657 117.025C73.9657 117.692 73.9458 118.392 73.9062 119.125C73.8466 120.675 73.4792 121.967 72.804 123C72.1485 124.017 71.2152 124.775 70.0037 125.275C68.7923 125.758 67.3327 126 65.6248 126ZM65.6248 123.875C67.154 123.875 68.3951 123.492 69.3484 122.725C70.3215 121.958 70.8478 120.717 70.9272 119C70.9669 118.25 70.9868 117.583 70.9868 117C70.9868 116.4 70.9669 115.733 70.9272 115C70.8875 113.85 70.6293 112.917 70.1527 112.2C69.696 111.483 69.0803 110.958 68.3058 110.625C67.5312 110.292 66.6376 110.125 65.6248 110.125C64.6517 110.125 63.7778 110.292 63.0033 110.625C62.2288 110.958 61.6032 111.483 61.1266 112.2C60.6699 112.917 60.4117 113.85 60.3521 115C60.3323 115.733 60.3223 116.4 60.3223 117C60.3223 117.583 60.3323 118.25 60.3521 119C60.4316 120.717 60.9579 121.958 61.9309 122.725C62.9041 123.492 64.1353 123.875 65.6248 123.875ZM78.0992 125.75C77.8807 125.75 77.7119 125.7 77.5927 125.6C77.4736 125.483 77.414 125.342 77.414 125.175V108.85C77.414 108.667 77.4736 108.525 77.5927 108.425C77.7119 108.308 77.8807 108.25 78.0992 108.25H79.6184C79.8369 108.25 80.0056 108.308 80.1248 108.425C80.2638 108.525 80.3333 108.667 80.3333 108.85V115.75H90.5807V108.85C90.5807 108.667 90.6403 108.525 90.7595 108.425C90.8984 108.308 91.0673 108.25 91.2659 108.25H92.7851C93.0039 108.25 93.1724 108.308 93.2915 108.425C93.4302 108.525 93.5 108.667 93.5 108.85V125.175C93.5 125.342 93.4302 125.483 93.2915 125.6C93.1724 125.7 93.0039 125.75 92.7851 125.75H91.2659C91.0673 125.75 90.8984 125.7 90.7595 125.6C90.6403 125.483 90.5807 125.342 90.5807 125.175V118H80.3333V125.175C80.3333 125.342 80.2638 125.483 80.1248 125.6C80.0056 125.7 79.8369 125.75 79.6184 125.75H78.0992ZM102.999 125.75C102.801 125.75 102.632 125.7 102.493 125.6C102.373 125.483 102.314 125.342 102.314 125.175V110.475H96.5944C96.3961 110.475 96.2276 110.425 96.0879 110.325C95.9688 110.208 95.9092 110.067 95.9092 109.9V108.85C95.9092 108.667 95.9688 108.525 96.0879 108.425C96.2276 108.308 96.3961 108.25 96.5944 108.25H110.953C111.171 108.25 111.34 108.308 111.459 108.425C111.599 108.525 111.668 108.667 111.668 108.85V109.9C111.668 110.067 111.599 110.208 111.459 110.325C111.34 110.425 111.171 110.475 110.953 110.475H105.263V125.175C105.263 125.342 105.194 125.483 105.054 125.6C104.935 125.7 104.767 125.75 104.548 125.75H102.999ZM121.207 125.75C120.989 125.75 120.819 125.7 120.7 125.6C120.581 125.483 120.521 125.342 120.521 125.175V108.85C120.521 108.667 120.581 108.525 120.7 108.425C120.819 108.308 120.989 108.25 121.207 108.25H135.893C136.111 108.25 136.28 108.308 136.399 108.425C136.539 108.525 136.607 108.667 136.607 108.85V125.175C136.607 125.342 136.539 125.483 136.399 125.6C136.28 125.7 136.111 125.75 135.893 125.75H134.374C134.175 125.75 134.006 125.7 133.867 125.6C133.748 125.483 133.689 125.342 133.689 125.175V110.5H123.441V125.175C123.441 125.342 123.372 125.483 123.232 125.6C123.113 125.7 122.945 125.75 122.726 125.75H121.207ZM141.55 125.75C141.331 125.75 141.162 125.7 141.043 125.6C140.924 125.483 140.864 125.342 140.864 125.175V108.85C140.864 108.667 140.924 108.525 141.043 108.425C141.162 108.308 141.331 108.25 141.55 108.25H149.116C150.586 108.25 151.857 108.45 152.929 108.85C154.021 109.25 154.865 109.85 155.461 110.65C156.057 111.433 156.355 112.417 156.355 113.6C156.355 114.783 156.057 115.767 155.461 116.55C154.865 117.333 154.021 117.925 152.929 118.325C151.857 118.725 150.586 118.925 149.116 118.925H143.843V125.175C143.843 125.342 143.774 125.483 143.635 125.6C143.516 125.7 143.347 125.75 143.128 125.75H141.55ZM143.814 116.825H148.967C150.437 116.825 151.539 116.55 152.274 116C153.008 115.45 153.376 114.65 153.376 113.6C153.376 112.567 153.018 111.767 152.303 111.2C151.588 110.633 150.476 110.35 148.967 110.35H143.814V116.825ZM157.683 125.75C157.525 125.75 157.385 125.7 157.266 125.6C157.147 125.5 157.087 125.383 157.087 125.25C157.087 125.167 157.098 125.075 157.117 124.975L164.505 108.8C164.585 108.633 164.694 108.5 164.832 108.4C164.972 108.3 165.181 108.25 165.458 108.25H167.484C167.742 108.25 167.941 108.3 168.079 108.4C168.239 108.5 168.358 108.633 168.437 108.8L175.795 124.975C175.835 125.075 175.854 125.167 175.854 125.25C175.854 125.383 175.795 125.5 175.676 125.6C175.556 125.7 175.418 125.75 175.259 125.75H173.739C173.501 125.75 173.322 125.7 173.203 125.6C173.104 125.5 173.035 125.408 172.995 125.325L171.356 121.775H161.585L159.947 125.325C159.928 125.408 159.858 125.5 159.739 125.6C159.619 125.7 159.441 125.75 159.202 125.75H157.683ZM162.449 119.625H170.492L166.471 110.75L162.449 119.625ZM191.73 125.75C191.531 125.75 191.362 125.7 191.224 125.6C191.104 125.483 191.045 125.342 191.045 125.175V110.5H183.657V114.525C183.657 116.525 183.528 118.233 183.27 119.65C183.011 121.05 182.615 122.192 182.078 123.075C181.542 123.942 180.847 124.592 179.993 125.025C179.159 125.442 178.146 125.675 176.955 125.725C176.755 125.742 176.587 125.692 176.448 125.575C176.309 125.458 176.24 125.308 176.24 125.125V124.025C176.24 123.692 176.448 123.5 176.865 123.45C177.481 123.367 178.027 123.142 178.504 122.775C179 122.408 179.417 121.867 179.755 121.15C180.092 120.417 180.351 119.483 180.529 118.35C180.708 117.2 180.797 115.825 180.797 114.225V108.825C180.797 108.658 180.857 108.525 180.976 108.425C181.115 108.308 181.283 108.25 181.483 108.25H193.249C193.467 108.25 193.636 108.308 193.756 108.425C193.894 108.525 193.964 108.667 193.964 108.85V125.175C193.964 125.342 193.894 125.483 193.756 125.6C193.636 125.7 193.467 125.75 193.249 125.75H191.73ZM198.941 125.75C198.723 125.75 198.554 125.7 198.434 125.6C198.315 125.483 198.256 125.342 198.256 125.175V108.825C198.256 108.658 198.315 108.525 198.434 108.425C198.554 108.308 198.723 108.25 198.941 108.25H200.46C200.679 108.25 200.847 108.308 200.966 108.425C201.106 108.525 201.175 108.658 201.175 108.825V114.9H205.703C207.888 114.9 209.566 115.358 210.737 116.275C211.909 117.175 212.495 118.5 212.495 120.25C212.495 121.2 212.247 122.1 211.75 122.95C211.273 123.783 210.529 124.458 209.516 124.975C208.524 125.492 207.252 125.75 205.703 125.75H198.941ZM201.175 123.65H205.465C206.756 123.65 207.758 123.333 208.473 122.7C209.188 122.067 209.546 121.233 209.546 120.2C209.546 119.133 209.209 118.333 208.533 117.8C207.858 117.25 206.835 116.975 205.465 116.975H201.175V123.65ZM215.996 125.75C215.778 125.75 215.609 125.7 215.489 125.6C215.37 125.483 215.311 125.342 215.311 125.175V108.85C215.311 108.667 215.37 108.525 215.489 108.425C215.609 108.308 215.778 108.25 215.996 108.25H217.515C217.734 108.25 217.902 108.308 218.022 108.425C218.161 108.525 218.23 108.667 218.23 108.85V115.75H228.477V108.85C228.477 108.667 228.537 108.525 228.656 108.425C228.796 108.308 228.964 108.25 229.163 108.25H230.682C230.901 108.25 231.069 108.308 231.188 108.425C231.328 108.525 231.397 108.667 231.397 108.85V125.175C231.397 125.342 231.328 125.483 231.188 125.6C231.069 125.7 230.901 125.75 230.682 125.75H229.163C228.964 125.75 228.796 125.7 228.656 125.6C228.537 125.483 228.477 125.342 228.477 125.175V118H218.23V125.175C218.23 125.342 218.161 125.483 218.022 125.6C217.902 125.7 217.734 125.75 217.515 125.75H215.996ZM236.339 125.75C236.12 125.75 235.952 125.692 235.833 125.575C235.713 125.458 235.654 125.317 235.654 125.15V108.85C235.654 108.667 235.713 108.525 235.833 108.425C235.971 108.308 236.141 108.25 236.339 108.25H237.888C238.086 108.25 238.245 108.308 238.365 108.425C238.503 108.525 238.573 108.667 238.573 108.85V121.775L249.684 108.6C249.744 108.533 249.823 108.458 249.923 108.375C250.042 108.292 250.21 108.25 250.429 108.25H251.889C252.087 108.25 252.246 108.308 252.365 108.425C252.504 108.525 252.574 108.667 252.574 108.85V125.175C252.574 125.342 252.504 125.483 252.365 125.6C252.246 125.7 252.087 125.75 251.889 125.75H250.37C250.171 125.75 250.002 125.7 249.863 125.6C249.724 125.483 249.655 125.342 249.655 125.175V112.35L238.573 125.4C238.533 125.45 238.454 125.525 238.335 125.625C238.216 125.708 238.047 125.75 237.828 125.75H236.339ZM255.618 125.75C255.459 125.75 255.31 125.7 255.171 125.6C255.052 125.5 254.992 125.383 254.992 125.25C254.992 125.183 255.003 125.125 255.022 125.075C255.062 125.008 255.092 124.958 255.112 124.925L261.933 116.85L255.439 109.075C255.38 108.975 255.35 108.867 255.35 108.75C255.35 108.617 255.409 108.5 255.529 108.4C255.648 108.3 255.786 108.25 255.946 108.25H257.733C257.931 108.25 258.09 108.292 258.21 108.375C258.329 108.442 258.438 108.542 258.537 108.675L263.78 114.925L268.993 108.675C269.072 108.542 269.172 108.442 269.291 108.375C269.43 108.292 269.589 108.25 269.768 108.25H271.466C271.625 108.25 271.764 108.3 271.883 108.4C272.002 108.5 272.061 108.617 272.061 108.75C272.061 108.867 272.021 108.975 271.942 109.075L265.538 116.875L272.33 124.925C272.37 124.958 272.399 125.008 272.419 125.075C272.438 125.125 272.449 125.183 272.449 125.25C272.449 125.383 272.389 125.5 272.27 125.6C272.151 125.7 272.002 125.75 271.823 125.75H270.006C269.827 125.75 269.668 125.708 269.529 125.625C269.41 125.542 269.301 125.45 269.202 125.35L263.661 118.85L258.15 125.35C258.05 125.45 257.942 125.542 257.822 125.625C257.703 125.708 257.544 125.75 257.346 125.75H255.618ZM281.92 125.75C281.721 125.75 281.552 125.7 281.413 125.6C281.294 125.483 281.235 125.342 281.235 125.175V108.85C281.235 108.667 281.294 108.525 281.413 108.425C281.552 108.308 281.721 108.25 281.92 108.25H283.409C283.647 108.25 283.826 108.3 283.945 108.4C284.065 108.5 284.133 108.583 284.154 108.65L290.469 118.75L296.814 108.65C296.853 108.583 296.923 108.5 297.023 108.4C297.142 108.3 297.321 108.25 297.559 108.25H299.019C299.236 108.25 299.406 108.308 299.525 108.425C299.664 108.525 299.734 108.667 299.734 108.85V125.175C299.734 125.342 299.664 125.483 299.525 125.6C299.406 125.7 299.236 125.75 299.019 125.75H297.559C297.36 125.75 297.191 125.7 297.053 125.6C296.933 125.483 296.874 125.342 296.874 125.175V112.875L291.899 121.025C291.819 121.192 291.7 121.325 291.542 121.425C291.382 121.508 291.184 121.55 290.946 121.55H290.022C289.764 121.55 289.555 121.508 289.397 121.425C289.257 121.325 289.138 121.192 289.039 121.025L284.065 112.875V125.175C284.065 125.342 283.995 125.483 283.856 125.6C283.737 125.7 283.578 125.75 283.379 125.75H281.92ZM302.591 125.75C302.432 125.75 302.293 125.7 302.174 125.6C302.055 125.5 301.996 125.383 301.996 125.25C301.996 125.167 302.006 125.075 302.025 124.975L309.413 108.8C309.492 108.633 309.602 108.5 309.741 108.4C309.879 108.3 310.088 108.25 310.366 108.25H312.392C312.65 108.25 312.849 108.3 312.988 108.4C313.147 108.5 313.266 108.633 313.345 108.8L320.703 124.975C320.743 125.075 320.763 125.167 320.763 125.25C320.763 125.383 320.703 125.5 320.584 125.6C320.465 125.7 320.326 125.75 320.167 125.75H318.648C318.409 125.75 318.231 125.7 318.111 125.6C318.012 125.5 317.943 125.408 317.903 125.325L316.265 121.775H306.494L304.855 125.325C304.836 125.408 304.766 125.5 304.647 125.6C304.528 125.7 304.349 125.75 304.111 125.75H302.591ZM307.358 119.625H315.401L311.379 110.75L307.358 119.625ZM323.74 125.75C323.521 125.75 323.352 125.7 323.233 125.6C323.114 125.483 323.055 125.342 323.055 125.175V108.825C323.055 108.658 323.114 108.525 323.233 108.425C323.352 108.308 323.521 108.25 323.74 108.25H325.259C325.477 108.25 325.646 108.308 325.765 108.425C325.904 108.525 325.974 108.658 325.974 108.825V123.5H333.272V108.825C333.272 108.658 333.332 108.525 333.451 108.425C333.59 108.308 333.758 108.25 333.957 108.25H335.477C335.694 108.25 335.864 108.308 335.983 108.425C336.122 108.525 336.191 108.658 336.191 108.825V123.5H343.49V108.825C343.49 108.658 343.549 108.525 343.668 108.425C343.807 108.308 343.976 108.25 344.175 108.25H345.694C345.912 108.25 346.081 108.308 346.201 108.425C346.339 108.525 346.409 108.658 346.409 108.825V125.175C346.409 125.342 346.339 125.483 346.201 125.6C346.081 125.7 345.912 125.75 345.694 125.75H323.74ZM351.384 125.75C351.165 125.75 350.997 125.692 350.877 125.575C350.758 125.458 350.699 125.317 350.699 125.15V108.85C350.699 108.667 350.758 108.525 350.877 108.425C351.016 108.308 351.185 108.25 351.384 108.25H352.933C353.131 108.25 353.29 108.308 353.409 108.425C353.548 108.525 353.618 108.667 353.618 108.85V121.775L364.729 108.6C364.789 108.533 364.868 108.458 364.968 108.375C365.087 108.292 365.255 108.25 365.474 108.25H366.934C367.132 108.25 367.291 108.308 367.41 108.425C367.549 108.525 367.619 108.667 367.619 108.85V125.175C367.619 125.342 367.549 125.483 367.41 125.6C367.291 125.7 367.132 125.75 366.934 125.75H365.414C365.215 125.75 365.047 125.7 364.908 125.6C364.768 125.483 364.699 125.342 364.699 125.175V112.35L353.618 125.4C353.578 125.45 353.499 125.525 353.38 125.625C353.261 125.708 353.091 125.75 352.873 125.75H351.384ZM372.599 125.75C372.38 125.75 372.212 125.7 372.093 125.6C371.974 125.483 371.914 125.342 371.914 125.175V108.85C371.914 108.667 371.974 108.525 372.093 108.425C372.212 108.308 372.38 108.25 372.599 108.25H374.118C374.336 108.25 374.506 108.308 374.625 108.425C374.763 108.525 374.833 108.667 374.833 108.85V115.75H385.081V108.85C385.081 108.667 385.14 108.525 385.259 108.425C385.398 108.308 385.567 108.25 385.766 108.25H387.285C387.503 108.25 387.672 108.308 387.791 108.425C387.93 108.525 388 108.667 388 108.85V125.175C388 125.342 387.93 125.483 387.791 125.6C387.672 125.7 387.503 125.75 387.285 125.75H385.766C385.567 125.75 385.398 125.7 385.259 125.6C385.14 125.483 385.081 125.342 385.081 125.175V118H374.833V125.175C374.833 125.342 374.763 125.483 374.625 125.6C374.506 125.7 374.336 125.75 374.118 125.75H372.599Z" fill="white"/>
<defs>
<linearGradient id="paint0_linear_5_1029" x1="48.1335" y1="8.30994e-07" x2="48.8665" y2="97" gradientUnits="userSpaceOnUse">
<stop stop-color="#066839"/>
<stop offset="1" stop-color="#1A3265"/>
</linearGradient>
<linearGradient id="paint1_linear_5_1029" x1="487.635" y1="57" x2="108.003" y2="62.2213" gradientUnits="userSpaceOnUse">
<stop stop-color="#066839"/>
<stop offset="1" stop-color="white"/>
</linearGradient>
</defs>
</svg>
