<svg width="25" height="25" viewBox="0 0 25 25" fill="none" xmlns="http://www.w3.org/2000/svg">
<mask id="mask0_14_7130" style="mask-type:alpha" maskUnits="userSpaceOnUse" x="0" y="0" width="25" height="25">
<rect x="0.737671" y="0.14502" width="24" height="24" fill="#D9D9D9"/>
</mask>
<g mask="url(#mask0_14_7130)">
<path d="M18.7377 20.145L17.3377 18.745L18.9127 17.145H14.7377V15.145H18.9127L17.3377 13.545L18.7377 12.145L22.7377 16.145L18.7377 20.145ZM4.73767 17.145C4.18767 17.145 3.71684 16.9492 3.32517 16.5575C2.9335 16.1659 2.73767 15.695 2.73767 15.145V5.14502C2.73767 4.59502 2.9335 4.12419 3.32517 3.73252C3.71684 3.34085 4.18767 3.14502 4.73767 3.14502H17.7377C18.2877 3.14502 18.7585 3.34085 19.1502 3.73252C19.5418 4.12419 19.7377 4.59502 19.7377 5.14502V10.245C19.571 10.2117 19.4043 10.1867 19.2377 10.17C19.071 10.1534 18.9043 10.145 18.7377 10.145C18.571 10.145 18.4043 10.1492 18.2377 10.1575C18.071 10.1659 17.9043 10.1867 17.7377 10.22V6.54502L11.1377 11.145L4.73767 6.57002V15.145H12.8127C12.7793 15.3117 12.7585 15.4784 12.7502 15.645C12.7418 15.8117 12.7377 15.9784 12.7377 16.145C12.7377 16.3117 12.746 16.4784 12.7627 16.645C12.7793 16.8117 12.8043 16.9784 12.8377 17.145H4.73767ZM6.18767 5.14502L11.1377 8.69502L16.2377 5.14502H6.18767Z" fill="#E9B44D"/>
</g>
</svg>
