<svg width="800" height="800" viewBox="0 0 800 800" fill="none" xmlns="http://www.w3.org/2000/svg">
<path d="M479.583 387.75C473.667 387.833 468.667 387.917 464.25 388C453.583 388.25 445.417 388.417 433.083 387.917C434.25 380.167 437.333 361.75 445.417 318.25C446.583 312.083 443.333 306.167 437.583 303.833C431.833 301.5 425.333 303.417 421.917 308.667C402.667 337.417 367.417 389.75 348.167 416.75C345.333 420.75 345 425.917 347.25 430.333C349.5 434.667 354 437.417 358.917 437.333C363.917 437.25 368.5 437.167 372.917 437C380.5 436.75 387.75 436.583 396.917 436.667C392 448.417 386.75 462.083 381.333 476.417C377.167 487.333 372.917 498.667 368.25 510.333C365.917 516.25 368 522.75 373.417 526.167C375.583 527.5 378 528.167 380.333 528.167C383.833 528.167 387.333 526.667 389.917 523.917C425.667 484.75 450.583 455.667 489.667 409.083C493 405.167 493.667 399.833 491.417 395.167C489.333 390.5 484.75 387.583 479.583 387.75ZM480.167 401C441.167 447.417 416.333 476.417 380.75 515.417C380.583 515.667 380.5 515.75 380.167 515.5C379.833 515.25 379.833 515.167 380 514.917C384.667 503.167 389 491.833 393.167 480.833C399.917 463.083 406.333 446.25 412.167 433.167C413 431.25 412.833 429.083 411.75 427.333C410.667 425.583 408.75 424.5 406.667 424.417C401.083 424.25 396.083 424.167 391.583 424.167C384.583 424.167 378.5 424.333 372.667 424.5C368.25 424.667 363.75 424.75 358.833 424.833C358.75 424.833 358.5 424.833 358.417 424.583C358.25 424.333 358.417 424.167 358.417 424.083C377.75 396.917 413.083 344.5 432.417 315.667C432.583 315.417 432.667 315.333 433 315.5C433.333 315.667 433.333 315.75 433.333 316.083C429.5 336.5 426.417 353.333 424.25 366C422.833 374.167 421.75 380.5 421.083 385C419.917 392.917 419.5 395.25 421.5 397.75C422.583 399.167 424.333 400.083 426.083 400.167C442.75 401.083 452 400.833 464.667 400.583C469.083 400.5 474 400.333 479.833 400.333C480 400.333 480.167 400.333 480.25 400.583C480.333 400.75 480.25 400.917 480.167 401ZM667.333 97.7499C665.167 95.8333 662 95.7499 659.667 97.3333C646.5 106.583 633.833 115.417 621.583 123.917C609.333 132.417 596.583 141.25 583.417 150.5C582.333 151.25 581.583 152.25 581.167 153.5C577.75 162.917 574.333 172.75 571 182.25C567.833 191.333 564.583 200.667 561.333 209.583C555.75 215.167 527.25 243.917 495 276.583C457.25 257.167 413.583 251.833 372.75 262.583C364.833 264.667 357.167 267.333 349.833 270.5C341.167 262.083 332.917 254.083 324.75 246.167C333.25 232.917 339.583 217.083 342.667 201.083C346.417 181.75 345.417 163.25 339.833 147.583C329 117.25 299.5 81.5833 264 71.9166C233.083 63.4999 204 71.3333 174.917 95.6666C173.5 96.8333 172.75 98.4999 172.667 100.333C172.667 102.167 173.417 103.917 174.75 105.083C185.5 114.75 192.833 122 199.917 129C206.583 135.583 213.417 142.333 223.083 151.083C221.417 162.25 219.333 172.583 217.25 182.583C215.25 192.417 213.167 202.5 211.5 213.5C201.25 215.083 192.167 217.25 183.25 219.417C170.833 222.417 159 225.25 145.083 226.167C137.167 218.667 130.333 211.917 123.667 205.5C116.5 198.5 109.083 191.25 100.25 182.917C99 181.75 97.3334 181.167 95.5834 181.25C93.8334 181.333 92.25 182.167 91.1667 183.417C70.25 208.083 66.0834 245.917 80.75 277.417C95 308 125.25 334.75 156.083 344.083C169.917 348.25 187.75 348.25 206.417 344.083C220.5 340.917 234.167 335.5 244.083 329.25C252.25 337.75 260.5 346.333 269.167 355.333C269.083 355.5 269 355.667 269 355.833C258 384.5 255.917 417.583 263.083 449.083C246.583 465.667 223.167 488.917 200.417 511.417C171.333 540.25 141.167 570.083 125.333 586.333C117.833 594 109.417 602.583 105.417 614.167C101.083 626.75 102.75 641.5 110 655.833C116.167 668 125.167 677.917 133.833 687.5C152.5 708.083 174.75 730.083 203.75 731.167C204.25 731.167 204.75 731.167 205.333 731.167C218.333 731.167 230.417 725.083 243.25 712C256.333 698.583 271.167 683.833 286.833 668.167C317.833 637.25 352.75 602.333 383.333 569.417C387.25 570.333 391.25 571.083 395.25 571.667C403.583 572.917 411.917 573.5 420.25 573.5C435.5 573.5 450.667 571.417 465 567.333C496.083 601.167 537.417 645.75 584.667 694.583C585.083 695.083 585.583 695.583 586.083 696.083C595 705.417 613.583 724.917 646.75 724.917C654.333 724.917 662.667 723.917 671.917 721.5C696.417 715.083 716.75 690 720.167 661.75C723.25 636.833 712.75 613.083 688.25 589C651 552.5 613.583 516.833 567.417 473.833C576.917 450.917 581.25 426.333 579.667 402.583C578 377.667 570 353.333 557.25 332.583C588 300.917 615.333 272.583 620.5 267.167C628.833 263.667 638.333 260.083 647.5 256.583C657.25 252.917 667.333 249.083 676.167 245.25C677.25 244.833 678.167 244.083 678.833 243.083C695.917 218.667 716.917 183.083 727.333 162.75C728.5 160.417 728.167 157.583 726.333 155.667C705.333 133.167 689 116.5 667.333 97.7499ZM249.333 316.833C247.167 314.583 243.583 314.25 241.083 316.167C225.083 328.333 186.417 340.25 159.667 332.167C132.5 324 104.667 299.333 92.0834 272.167C86.0834 259.333 83.5834 244.417 85 230.083C86.25 217.667 90.25 206.25 96.6667 196.833C103.25 203.167 109.167 208.917 114.833 214.5C122 221.583 129.5 228.833 138.417 237.25C139.667 238.417 141.333 239 143 238.917C159.167 238.083 172.833 234.833 186 231.667C195.917 229.333 206.167 226.833 217.667 225.333C220.5 225 222.667 222.75 223.083 220C224.75 207.583 227.083 196.25 229.333 185.25C231.667 174.083 234 162.5 235.75 149.667C236 147.583 235.25 145.583 233.75 144.167C223 134.5 215.667 127.25 208.583 120.25C202.667 114.417 196.583 108.333 188.417 100.833C212.417 82.5833 235.583 77.2499 260.583 83.9999C287.833 91.4166 316.75 120.5 327.917 151.75C337.5 178.667 330.75 216.333 311.417 243.333C309.667 245.833 309.917 249.25 312.083 251.417C320.417 259.583 328.833 267.75 337.667 276.333C328.167 281.5 319.25 287.667 311 294.833C295.75 308.083 283.5 324.25 274.417 342.833C265.917 334 257.667 325.333 249.333 316.833ZM277.917 659.417C262.167 675.083 247.333 689.917 234.167 703.333C223.417 714.333 214.083 719.083 204.167 718.75C180.083 717.833 160 697.833 143.083 679.167C134.917 670.167 126.5 660.917 121.167 650.25C115.5 639.167 114.083 627.5 117.25 618.25C120.333 609.417 127.667 601.833 134.25 595.083C150 578.917 180.083 549.083 209.167 520.333C229.667 500 250.75 479.083 266.833 463C269.333 470.833 272.417 478.417 276 485.75C261 500.333 244.25 516.75 227.5 533.167C204.833 555.417 181.333 578.333 162.917 596.25C152.75 606.167 149.417 615.333 153.167 623.5C156.333 630.417 163.5 633.583 170.333 633.583C171.917 633.583 173.5 633.417 174.917 633.083C181.25 631.667 187.417 628.167 192.75 622.917C210.583 605.333 223.417 593.333 235.833 581.667C253.667 565 270.583 549.25 298.583 520C302.167 524.083 305.917 528 309.833 531.667C310.917 532.667 312 533.667 313.167 534.667C300.5 547 286.5 560.583 272.583 574.167C251.583 594.583 229.917 615.75 213.167 631.917C207.333 637.5 199.417 645.167 197.25 655.583C195.833 662.167 197.583 669.583 201.833 674.917C205.333 679.25 210.083 681.667 215.25 681.75C215.333 681.75 215.333 681.75 215.417 681.75C223.667 681.75 229.917 675.833 233.667 672.25C254.167 652.75 278.083 629.5 301.25 607C317.917 590.75 335.167 574.083 351 558.833C357 561.583 363.167 563.917 369.5 565.917C340.333 597.083 307.333 630.083 277.917 659.417ZM282.25 497.167C284.917 501.667 287.75 506 290.833 510.167C262.417 539.833 246.167 555.083 227.417 572.583C214.917 584.25 202 596.333 184.083 614C181.5 616.5 177.417 619.75 172.333 620.917C169.083 621.667 165.5 620.5 164.583 618.417C163.333 615.667 165.833 611 171.667 605.25C190.083 587.333 213.583 564.333 236.333 542.083C252.083 526.667 267.917 511.167 282.25 497.167ZM323.083 542.5C328.167 546.25 333.583 549.667 339.167 552.75C324.167 567.167 308.167 582.75 292.583 597.917C269.5 620.333 245.583 643.583 225.083 663.083C221.833 666.167 218.5 669.167 215.417 669.167C214.083 669.167 212.75 668.417 211.667 667C209.833 664.667 208.917 661 209.583 658.083C210.917 651.917 215.75 646.833 222 640.833C238.75 624.667 260.417 603.5 281.417 583.083C295.75 569.083 310.083 555.083 323.083 542.5ZM679.333 598.083C700.917 619.25 710.167 639.667 707.583 660.417C704.75 683.75 688.333 704.333 668.583 709.583C626.5 720.583 605.25 698.333 595 687.667C594.5 687.083 594 686.583 593.5 686.083C548.25 639.333 508.417 596.417 477.833 563.167C481.417 561.75 484.917 560.333 488.333 558.667C493.917 556 499.333 553 504.583 549.583C523.167 568.083 541.083 585.833 560.583 605.25C565.583 610.25 573.917 618.5 584.833 618.5C585 618.5 585.25 618.5 585.417 618.5C593.167 618.333 600.833 614.417 605.833 608.167C610.333 602.5 612.25 595.417 610.917 588.75C608.25 575.333 598.5 565.333 590.667 557.25L545.75 511.333C549.917 505.917 553.75 500.167 557.25 494.25C558.833 491.5 560.333 488.75 561.833 485.917C606.5 527.583 643 562.417 679.333 598.083ZM515 542.25C523.167 536 530.75 528.917 537.667 521.083L581.667 566.083C588.333 572.917 596.667 581.417 598.583 591.25C599.417 595.417 597.333 598.75 596 600.417C593.333 603.75 589.083 605.917 585.083 606C579.667 606.083 574.333 601.333 569.333 596.333C550.5 577.5 533 560.167 515 542.25ZM567 403.583C568.917 432 561.583 461.917 546.417 487.917C531.25 513.917 508.75 535 483.083 547.25C457.417 559.5 426.833 563.833 397.083 559.333C367.333 554.833 339.417 541.75 318.5 522.417C297.583 503.083 282.333 476.333 275.5 447C268.667 417.667 270.5 386.917 280.75 360.333C281.25 359.083 281.75 357.833 282.25 356.583C282.333 356.417 282.417 356.25 282.417 356.167C296.083 323.417 319.833 298.5 350.75 283.917C351.083 283.75 351.417 283.583 351.75 283.417C359.417 279.917 367.5 277 375.917 274.75C415.25 264.417 457.25 270.167 493.167 289.833C493.25 289.833 493.333 289.917 493.333 289.917C502.417 294.917 511.083 300.75 519.25 307.5C546.583 330.25 564.417 366.083 567 403.583ZM669.5 234.583C661.333 238 652 241.583 642.917 245C633.167 248.667 623.083 252.5 614.25 256.333C613.5 256.667 612.75 257.167 612.167 257.75C611.833 258.083 583.167 287.917 549.917 322.167C543.25 313.167 535.583 305 527.083 298C520.417 292.5 513.417 287.5 506.167 283.083C540.917 247.917 570.75 217.917 571.083 217.583C571.75 216.917 572.25 216.167 572.5 215.333C575.917 205.917 579.333 196.083 582.667 186.583C585.75 177.75 589 168.583 592.167 159.75C604.75 150.917 616.833 142.5 628.583 134.333C639.583 126.667 651 118.75 662.75 110.5C681.167 126.667 695.917 141.75 714 161.083C703.5 180.917 685 212.167 669.5 234.583ZM638.833 678.333C642.75 681 647.25 682.333 652.083 682.333C654.167 682.333 656.333 682.083 658.583 681.583C667.75 679.417 674.417 673.333 676.917 664.917C679.417 656.417 677.083 646.917 671 640.667C665 634.5 656.167 632.333 646.833 634.75C637.667 637.167 633.167 642.417 630.917 646.5C628.083 651.667 627.333 657.75 628.833 663.75C630.25 669.833 633.833 675 638.833 678.333ZM649.917 646.833C651.417 646.417 652.833 646.25 654.167 646.25C657.25 646.25 659.917 647.333 661.917 649.333C664.833 652.333 666 657.25 664.833 661.417C664 664.25 661.75 667.917 655.667 669.417C646.25 671.667 641.917 665 640.917 660.75C640.417 658.917 638.75 649.75 649.917 646.833Z" fill="black"/>
<path d="M138.417 683.334C156.333 703.084 177.25 724 203.917 724.917C215.5 725.334 226.25 720.25 238.667 707.667C278.833 666.75 335 612.5 381.083 562.583C370 559.417 359.667 555.5 350.167 550.917C311.917 587.667 265.583 633.25 229.5 667.667C225.5 671.417 220.917 675.5 215.5 675.417C207.083 675.334 201.75 665.084 203.583 656.834C205.333 648.584 211.667 642.25 217.75 636.333C246.583 608.417 290 566 322.833 534.084C313.917 527.25 305.917 519.417 299 510.75C249.167 563 234 573.5 188.5 618.417C184.417 622.5 179.333 625.75 173.667 627C168 628.25 161.25 626.167 158.917 621C155.667 613.917 161.75 606.25 167.333 600.75C199.833 569.167 247.667 522.167 283.583 487.084C277.917 476.084 273.333 464.083 269.917 451.083C233.167 488.167 158.583 561.334 129.75 590.834C122.333 598.417 114.75 606.333 111.333 616.333C107.25 628.333 109.833 641.833 115.583 653.167C121.333 664.417 129.917 673.917 138.417 683.334Z" fill="#E9B44D"/>
<path d="M683.667 593.667C639.833 550.667 599.25 512.333 559.75 475.583C553.667 489.25 546.417 501.5 537.833 512.333C553.75 528.583 570.333 545.5 586.167 561.75C594.167 569.917 602.583 578.833 604.75 590.083C607 601.333 596.75 612 585.25 612.333C577.25 612.583 570.667 606.5 565 600.833C544.667 580.667 525.333 561.334 505.833 542C494.25 549.75 481.25 555.917 466.833 560.417C504.917 601.917 544.5 644.417 589 690.417C599 700.75 622.25 728.167 670.167 715.667C693.667 709.5 710.833 685.333 713.75 661.25C717.167 633.333 701.083 610.667 683.667 593.667ZM657.083 675.5C633.75 681 624.167 647.167 648.333 640.833C673.25 634.333 681 669.833 657.083 675.5Z" fill="#E9B44D"/>
<path d="M157.917 338.167C186 346.667 226.583 335 244.917 321.083C255.75 332.25 266.167 343.167 276.5 353.917C291.833 317.667 315.75 292.25 348.5 278C338.083 267.917 327.417 257.583 316.667 247C335.667 220.417 344.917 180.417 334 149.667C323 118.917 294 86.5001 262.417 77.9167C230.917 69.3334 204 79.4167 179 100.417C200.75 120 208 129.167 229.75 148.667C226.333 173.917 220.5 193.667 217.083 219C189.75 222.583 170.417 231.083 142.917 232.583C125.25 216 113.75 204.083 96.1667 187.417C76.1667 211 73.5833 246.667 86.6667 274.75C99.5 302.917 128.25 329.25 157.917 338.167Z" fill="#E9B44D"/>
<path d="M663.25 102.5C636.917 121.083 613.333 137.167 587 155.75C580.25 174.5 573.417 194.417 566.667 213.167C566.667 213.167 533.667 246.417 496.083 284.417C518.333 295.833 536.333 311.333 549.25 331.833C585.083 295 616.75 262 616.75 262C634.167 254.583 656.167 247.083 673.583 239.583C690 216.167 710.75 181.167 721.667 159.917C702.583 139.417 685.667 121.917 663.25 102.5Z" fill="#E9B44D"/>
<path d="M427.167 312.083C406.167 343.417 372.25 393.75 353.333 420.333C350.167 424.833 353.417 431 358.917 431C374.75 430.833 385.917 429.917 406.417 430.583C396.917 451.667 386.583 481.167 374.167 512.583C371.417 519.583 380.333 525.167 385.417 519.583C421.083 480.417 445.667 451.833 485 405C488.667 400.583 485.5 393.833 479.75 393.917C457.5 394.167 448.667 395 426.333 393.833C425.25 393.75 433.417 349.25 439.417 317.083C440.667 309.917 431.25 306 427.167 312.083Z" fill="#E9B44D"/>
<path d="M646.75 634.75C637.583 637.167 633.083 642.417 630.833 646.5C628 651.667 627.25 657.75 628.75 663.75C630.25 669.834 633.833 675 638.833 678.417C642.75 681.084 647.25 682.417 652.083 682.417C654.167 682.417 656.333 682.167 658.583 681.667C667.75 679.5 674.417 673.417 676.917 665C679.417 656.5 677.083 647 671 640.75C664.917 634.5 656.083 632.334 646.75 634.75ZM664.833 661.417C664 664.25 661.75 667.917 655.667 669.417C646.25 671.667 641.917 665 640.917 660.75C640.5 658.917 638.833 649.834 649.917 646.917C651.417 646.5 652.833 646.334 654.167 646.334C657.25 646.334 659.917 647.417 661.917 649.417C664.917 652.417 666.083 657.25 664.833 661.417Z" fill="#222222"/>
<path d="M92.0833 272.25C90.6666 269.083 86.9166 267.75 83.75 269.25C80.5833 270.667 79.25 274.417 80.75 277.583C95 308.167 125.25 334.917 156.083 344.25C163 346.333 170.917 347.333 179.417 347.333C187.917 347.333 197.083 346.25 206.417 344.167C222.833 340.5 238.667 333.75 248.667 326.167C251.417 324.083 251.917 320.167 249.833 317.417C247.75 314.667 243.833 314.167 241.083 316.25C225.083 328.417 186.417 340.333 159.667 332.25C132.5 324 104.75 299.333 92.0833 272.25Z" fill="#222222"/>
<path d="M211.417 213.667C201.167 215.25 192.083 217.417 183.167 219.583C169.917 222.75 157.417 225.75 142.417 226.5C139 226.667 136.333 229.667 136.5 233.083C136.667 236.417 139.417 239 142.75 239C142.833 239 143 239 143.083 239C159.25 238.167 172.917 234.917 186.083 231.75C196 229.417 206.25 226.917 217.75 225.417C220.583 225.083 222.75 222.833 223.167 220.083C224.833 207.667 227.167 196.333 229.417 185.333C231.75 174.167 234.083 162.583 235.833 149.75C236.083 147.667 235.333 145.667 233.833 144.25C223.083 134.583 215.75 127.333 208.667 120.333C201.5 113.25 194.083 105.833 183.083 96C180.5 93.6666 176.583 93.9166 174.25 96.5C171.917 99.0833 172.167 103 174.75 105.333C185.5 115 192.833 122.25 199.917 129.25C206.583 135.833 213.417 142.583 223.083 151.333C221.417 162.5 219.333 172.833 217.25 182.833C215.167 192.5 213.083 202.667 211.417 213.667Z" fill="#222222"/>
<path d="M312.917 252.167C314 252.917 315.25 253.333 316.583 253.333C318.5 253.333 320.417 252.417 321.667 250.75C331.667 236.667 339.167 219.083 342.583 201.25C346.333 181.917 345.333 163.417 339.75 147.75C338.583 144.5 335 142.833 331.75 144C328.5 145.167 326.833 148.75 328 152C337.583 178.917 330.833 216.583 311.5 243.583C309.5 246.25 310.083 250.167 312.917 252.167Z" fill="#222222"/>
<path d="M667.333 97.7502C665.167 95.8335 662 95.7502 659.667 97.3335C646.5 106.584 633.833 115.417 621.583 123.917C609.333 132.417 596.583 141.25 583.417 150.584C582.333 151.334 581.583 152.334 581.167 153.584C577.75 163 574.333 172.834 571 182.334C567.667 191.834 564.25 201.667 560.833 211C559.667 214.25 561.333 217.834 564.583 219C565.25 219.25 566 219.417 566.75 219.417C569.333 219.417 571.667 217.834 572.667 215.334C576.083 205.917 579.5 196.084 582.833 186.584C585.917 177.75 589.167 168.584 592.333 159.75C604.917 150.917 617.083 142.5 628.833 134.334C639.833 126.667 651.25 118.75 663 110.5C682.417 127.584 697.833 143.417 717.167 164.334C719.5 166.834 723.5 167 726 164.667C728.5 162.334 728.667 158.334 726.333 155.834C705.333 133.167 689 116.5 667.333 97.7502Z" fill="#222222"/>
<path d="M679.333 237.167C678 234 674.333 232.5 671.167 233.917C662.583 237.584 652.667 241.334 643 245C633.25 248.667 623.167 252.5 614.333 256.334C613.583 256.667 612.833 257.167 612.25 257.75C611.917 258.084 583.25 287.917 550 322.167C543.333 313.167 535.667 305 527.167 298C483.583 262 425.833 248.834 372.667 262.834C349.417 268.917 328.75 279.75 311.167 295.084C292.5 311.334 278.333 331.834 269 356C257.917 384.834 255.917 418.25 263.25 450C266.167 462.5 270.5 474.5 276.083 485.834C261.083 500.417 244.333 516.834 227.583 533.25C204.917 555.5 181.417 578.417 163 596.334C152.833 606.25 149.5 615.417 153.25 623.584C156.417 630.5 163.583 633.667 170.417 633.667C172 633.667 173.583 633.5 175 633.167C181.333 631.75 187.5 628.25 192.833 623C210.667 605.417 223.5 593.417 235.917 581.75C253.75 565.084 270.667 549.334 298.667 520.084C302.25 524.167 306 528.084 309.917 531.75C311 532.75 312.083 533.75 313.25 534.75C300.583 547.084 286.583 560.667 272.667 574.25C251.667 594.667 230 615.834 213.25 632C207.417 637.584 199.5 645.25 197.333 655.667C195.917 662.25 197.667 669.667 201.917 675C205.417 679.334 210.167 681.75 215.333 681.834C215.417 681.834 215.417 681.834 215.5 681.834C223.75 681.834 230 675.917 233.75 672.334C254.25 652.834 278.167 629.584 301.333 607.084C318 590.834 335.25 574.167 351.083 558.917C364.917 565.167 379.833 569.667 395.167 571.917C403.5 573.167 411.833 573.75 420.167 573.75C444.083 573.75 467.667 568.584 488.417 558.75C494 556.084 499.417 553.084 504.667 549.667C523.083 567.917 541.417 586.25 560.667 605.334C565.667 610.334 574 618.584 584.917 618.584C585.083 618.584 585.333 618.584 585.5 618.584C593.25 618.417 600.917 614.5 605.917 608.25C610.417 602.584 612.333 595.5 611 588.834C608.333 575.417 598.583 565.417 590.75 557.334L545.833 511.417C550 506 553.833 500.25 557.333 494.25C573.75 466.084 581.667 433.584 579.583 402.75C577.917 377.834 569.917 353.5 557.167 332.75C587.917 301.084 615.25 272.75 620.417 267.334C628.75 263.834 638.25 260.25 647.417 256.75C657.167 253.084 667.25 249.25 676.083 245.417C679.167 244 680.667 240.334 679.333 237.167ZM227.417 572.584C214.917 584.25 202 596.334 184.083 614C181.5 616.5 177.417 619.75 172.333 620.917C169.083 621.667 165.5 620.5 164.583 618.417C163.333 615.667 165.833 611 171.667 605.25C190.083 587.334 213.583 564.334 236.333 542.084C252.167 526.584 267.917 511.167 282.25 497.167C284.917 501.667 287.75 506 290.833 510.167C262.417 539.834 246.167 555.084 227.417 572.584ZM292.583 597.917C269.5 620.334 245.583 643.584 225.083 663.084C221.833 666.167 218.5 669.167 215.417 669.167C214.083 669.167 212.75 668.417 211.667 667C209.833 664.667 208.917 661 209.583 658.084C210.917 651.917 215.75 646.834 222 640.834C238.75 624.667 260.417 603.5 281.417 583.084C295.75 569.084 310.083 555.167 323.083 542.5C328.167 546.25 333.583 549.667 339.167 552.75C324.25 567.167 308.25 582.75 292.583 597.917ZM581.667 566.084C588.333 572.917 596.667 581.417 598.583 591.25C599.417 595.417 597.333 598.75 596 600.417C593.333 603.75 589.083 605.917 585.083 606C579.667 606.084 574.333 601.334 569.333 596.334C550.667 577.75 532.75 560 514.917 542.25C523.083 536 530.667 528.917 537.583 521.084L581.667 566.084ZM546.417 487.917C531.25 513.917 508.75 535 483.083 547.25C457.417 559.5 426.833 563.834 397.083 559.334C367.333 554.834 339.417 541.75 318.5 522.417C297.583 503.084 282.333 476.334 275.5 447C268.667 417.667 270.5 386.917 280.75 360.334C297.417 316.917 331.25 286.5 375.917 274.75C425.167 261.834 478.833 274.084 519.333 307.5C546.75 330.167 564.667 366.084 567.167 403.5C568.917 432 561.583 461.917 546.417 487.917Z" fill="#222222"/>
</svg>
