<svg width="800" height="800" viewBox="0 0 800 800" fill="none" xmlns="http://www.w3.org/2000/svg">
<g clip-path="url(#clip0_10_1146)">
<path d="M335.484 258.064C278.568 258.064 232.258 304.374 232.258 361.29C232.258 418.206 278.568 464.516 335.484 464.516C392.4 464.516 438.71 418.206 438.71 361.29C438.71 304.374 392.4 258.064 335.484 258.064ZM335.484 438.71C292.787 438.71 258.065 403.987 258.065 361.29C258.065 318.593 292.787 283.871 335.484 283.871C378.181 283.871 412.903 318.593 412.903 361.29C412.903 403.987 378.181 438.71 335.484 438.71Z" fill="#E9B44D"/>
<path d="M735.484 645.161H567.742V619.355H541.935V670.968H516.129V361.29C516.129 343.742 513.497 326.826 508.8 310.761L619.355 215.329V0H490.323V161.535L431.535 208.555C403.665 190.981 370.8 180.645 335.484 180.645C300.168 180.645 267.303 190.981 239.432 208.568L180.645 161.535V0H51.6129V215.329L160.903 309.677H154.839C69.4581 309.677 0 379.135 0 464.516V485.394L25.8065 498.297V508.155L0 521.058V562.813L25.8065 575.716V585.574L0 598.477V640.232L25.8065 653.135V662.994L0 675.897V717.652L25.8065 730.555V740.413L0 753.316V800H25.8065V769.265L51.6129 756.361V714.606L25.8065 701.703V691.845L51.6129 678.942V637.187L25.8065 624.284V614.426L51.6129 601.523V559.768L25.8065 546.865V537.006L51.6129 524.103V482.348L25.8065 469.445V464.516C25.8065 393.368 83.6903 335.484 154.839 335.484H156.903C155.677 343.935 154.839 352.503 154.839 361.29V412.903C126.374 412.903 103.226 436.052 103.226 464.516V469.445L77.4194 482.348V524.103L103.226 537.006V546.865L77.4194 559.768V601.523L103.226 614.426V624.284L77.4194 637.187V678.942L103.226 691.845V701.703L77.4194 714.606V756.361L103.226 769.265V800H129.032V753.316L103.226 740.413V730.555L129.032 717.652V675.897L103.226 662.994V653.135L129.032 640.232V598.477L103.226 585.574V575.716L129.032 562.813V521.058L103.226 508.155V498.297L129.032 485.394V464.516C129.032 450.284 140.619 438.71 154.839 438.71V800H180.645V453.858C212.245 506.516 269.729 541.935 335.484 541.935C401.239 541.935 458.723 506.516 490.323 453.858V670.968H276.31L262.013 656.684L193.548 673.794V745.574L262.026 762.684L276.31 748.387H490.323V800H516.129V748.387H541.935V800H567.742V774.194H735.484C771.058 774.194 800 745.252 800 709.677C800 674.103 771.058 645.161 735.484 645.161ZM516.129 25.8065H593.548V51.6129H516.129V25.8065ZM507.755 180.645H541.935V154.839H516.129V129.032H541.935V103.226H516.129V77.4194H593.548V203.51L499.045 285.097C488.116 261.716 472.4 241.058 453.045 224.413L507.755 180.645ZM77.4194 25.8065H154.839V51.6129H77.4194V25.8065ZM171.923 285.097L77.4194 203.51V77.4194H154.839V103.226H129.032V129.032H154.839V154.839H129.032V180.645H163.213L217.923 224.413C198.568 241.058 182.852 261.716 171.923 285.097ZM335.484 516.129C250.103 516.129 180.645 446.671 180.645 361.29C180.645 275.91 250.103 206.452 335.484 206.452C420.865 206.452 490.323 275.91 490.323 361.29C490.323 446.671 420.865 516.129 335.484 516.129ZM541.935 722.581H265.626L254.116 734.103L219.355 725.406V693.948L254.103 685.252L265.626 696.774H541.935V722.581ZM748.387 746.013V722.581H722.581V748.387H696.774V722.581H670.968V748.387H645.161V722.581H619.355V748.387H567.742V722.581H593.548V696.774H567.742V670.968H619.355V696.774H645.161V670.968H670.968V696.774H696.774V670.968H722.581V696.774H748.387V673.342C763.368 678.684 774.194 692.877 774.194 709.677C774.194 726.477 763.368 740.671 748.387 746.013Z" fill="black"/>
<path d="M541.936 438.71C541.936 509.858 599.819 567.742 670.968 567.742C742.116 567.742 800 509.858 800 438.71C800 367.561 742.116 309.677 670.968 309.677C599.819 309.677 541.936 367.561 541.936 438.71ZM670.968 335.484C727.884 335.484 774.194 381.793 774.194 438.71C774.194 495.626 727.884 541.935 670.968 541.935C614.052 541.935 567.742 495.626 567.742 438.71C567.742 381.793 614.052 335.484 670.968 335.484Z" fill="#E9B44D"/>
<path d="M670.968 516.129C713.664 516.129 748.387 481.407 748.387 438.71C748.387 396.013 713.664 361.291 670.968 361.291C628.271 361.291 593.548 396.013 593.548 438.71C593.548 481.407 628.271 516.129 670.968 516.129ZM621.187 425.807C625.884 407.755 640.013 393.626 658.064 388.929V412.903H683.871V388.929C701.923 393.626 716.052 407.755 720.748 425.807H696.774V451.613H720.748C716.052 469.665 701.923 483.794 683.871 488.491V464.516H658.064V488.491C640.013 483.794 625.884 469.665 621.187 451.613H645.161V425.807H621.187Z" fill="#E9B44D"/>
</g>
<defs>
<clipPath id="clip0_10_1146">
<rect width="800" height="800" fill="white"/>
</clipPath>
</defs>
</svg>
